<mxfile host="app.diagrams.net" modified="2021-07-30T07:16:44.691Z" agent="5.0 (Windows NT 10.0; Win64; x64) AppleWebKit/537.36 (KHTML, like Gecko) Chrome/92.0.4515.107 Safari/537.36" etag="H08oik0OK9ECrtFjXz4d" version="14.9.3" type="github">
  <diagram id="SjEjn1CV5snLap1PukSV" name="Page-1">
    <mxGraphModel dx="2075" dy="706" grid="1" gridSize="10" guides="1" tooltips="1" connect="1" arrows="1" fold="1" page="1" pageScale="1" pageWidth="827" pageHeight="1169" math="0" shadow="0">
      <root>
        <mxCell id="0" />
        <mxCell id="1" parent="0" />
        <mxCell id="e1WzZySRsdqQACFZxS4t-1" value="" style="ellipse;whiteSpace=wrap;html=1;aspect=fixed;fillColor=#fff2cc;strokeColor=#d6b656;strokeWidth=0.3;" vertex="1" parent="1">
          <mxGeometry x="301" y="154" width="20" height="20" as="geometry" />
        </mxCell>
        <mxCell id="e1WzZySRsdqQACFZxS4t-2" value="" style="ellipse;whiteSpace=wrap;html=1;aspect=fixed;fillColor=#fff2cc;strokeColor=#d6b656;strokeWidth=0.3;" vertex="1" parent="1">
          <mxGeometry x="300" y="204" width="20" height="20" as="geometry" />
        </mxCell>
        <mxCell id="e1WzZySRsdqQACFZxS4t-3" value="" style="ellipse;whiteSpace=wrap;html=1;aspect=fixed;fillColor=#fff2cc;strokeColor=#d6b656;strokeWidth=0.3;" vertex="1" parent="1">
          <mxGeometry x="300" y="270" width="20" height="20" as="geometry" />
        </mxCell>
        <mxCell id="e1WzZySRsdqQACFZxS4t-4" value="" style="ellipse;whiteSpace=wrap;html=1;aspect=fixed;fillColor=#fff2cc;strokeColor=#d6b656;strokeWidth=0.3;" vertex="1" parent="1">
          <mxGeometry x="300" y="320" width="20" height="20" as="geometry" />
        </mxCell>
        <mxCell id="e1WzZySRsdqQACFZxS4t-8" value="" style="ellipse;whiteSpace=wrap;html=1;aspect=fixed;fillColor=#fff2cc;strokeColor=#d6b656;strokeWidth=0.3;" vertex="1" parent="1">
          <mxGeometry x="300" y="370" width="20" height="20" as="geometry" />
        </mxCell>
        <mxCell id="e1WzZySRsdqQACFZxS4t-9" value="" style="ellipse;whiteSpace=wrap;html=1;aspect=fixed;fillColor=#fff2cc;strokeColor=#d6b656;strokeWidth=0.3;" vertex="1" parent="1">
          <mxGeometry x="300" y="420" width="20" height="20" as="geometry" />
        </mxCell>
        <mxCell id="e1WzZySRsdqQACFZxS4t-10" value="" style="ellipse;whiteSpace=wrap;html=1;aspect=fixed;fillColor=#fff2cc;strokeColor=#d6b656;strokeWidth=0.3;" vertex="1" parent="1">
          <mxGeometry x="300" y="470" width="20" height="20" as="geometry" />
        </mxCell>
        <mxCell id="e1WzZySRsdqQACFZxS4t-11" value="" style="ellipse;whiteSpace=wrap;html=1;aspect=fixed;fillColor=#fff2cc;strokeColor=#d6b656;strokeWidth=0.3;" vertex="1" parent="1">
          <mxGeometry x="300" y="530" width="20" height="20" as="geometry" />
        </mxCell>
        <mxCell id="e1WzZySRsdqQACFZxS4t-12" value="" style="ellipse;whiteSpace=wrap;html=1;aspect=fixed;fillColor=#fff2cc;strokeColor=#d6b656;strokeWidth=0.3;" vertex="1" parent="1">
          <mxGeometry x="300" y="580" width="20" height="20" as="geometry" />
        </mxCell>
        <mxCell id="e1WzZySRsdqQACFZxS4t-13" value="" style="ellipse;whiteSpace=wrap;html=1;aspect=fixed;fillColor=#fff2cc;strokeColor=#d6b656;strokeWidth=0.3;" vertex="1" parent="1">
          <mxGeometry x="300" y="630" width="20" height="20" as="geometry" />
        </mxCell>
        <mxCell id="e1WzZySRsdqQACFZxS4t-46" value="" style="ellipse;whiteSpace=wrap;html=1;aspect=fixed;fillColor=#fff2cc;strokeColor=#d6b656;strokeWidth=0.3;" vertex="1" parent="1">
          <mxGeometry x="690" y="328.5" width="20" height="20" as="geometry" />
        </mxCell>
        <mxCell id="e1WzZySRsdqQACFZxS4t-47" value="" style="ellipse;whiteSpace=wrap;html=1;aspect=fixed;fillColor=#fff2cc;strokeColor=#d6b656;strokeWidth=0.3;" vertex="1" parent="1">
          <mxGeometry x="690" y="390" width="20" height="20" as="geometry" />
        </mxCell>
        <mxCell id="e1WzZySRsdqQACFZxS4t-48" value="" style="ellipse;whiteSpace=wrap;html=1;aspect=fixed;fillColor=#fff2cc;strokeColor=#d6b656;strokeWidth=0.3;" vertex="1" parent="1">
          <mxGeometry x="690" y="458.5" width="20" height="20" as="geometry" />
        </mxCell>
        <mxCell id="e1WzZySRsdqQACFZxS4t-49" value="" style="ellipse;whiteSpace=wrap;html=1;aspect=fixed;fillColor=#fff2cc;strokeColor=#d6b656;strokeWidth=0.3;" vertex="1" parent="1">
          <mxGeometry x="690" y="530.5" width="20" height="20" as="geometry" />
        </mxCell>
        <mxCell id="e1WzZySRsdqQACFZxS4t-50" value="" style="ellipse;whiteSpace=wrap;html=1;aspect=fixed;fillColor=#fff2cc;strokeColor=#d6b656;strokeWidth=0.3;" vertex="1" parent="1">
          <mxGeometry x="160" y="160" width="20" height="20" as="geometry" />
        </mxCell>
        <mxCell id="e1WzZySRsdqQACFZxS4t-51" value="" style="ellipse;whiteSpace=wrap;html=1;aspect=fixed;fillColor=#fff2cc;strokeColor=#d6b656;strokeWidth=0.3;" vertex="1" parent="1">
          <mxGeometry x="160" y="210" width="20" height="20" as="geometry" />
        </mxCell>
        <mxCell id="e1WzZySRsdqQACFZxS4t-52" value="" style="ellipse;whiteSpace=wrap;html=1;aspect=fixed;fillColor=#fff2cc;strokeColor=#d6b656;strokeWidth=0.3;" vertex="1" parent="1">
          <mxGeometry x="160" y="270" width="20" height="20" as="geometry" />
        </mxCell>
        <mxCell id="e1WzZySRsdqQACFZxS4t-53" value="" style="ellipse;whiteSpace=wrap;html=1;aspect=fixed;fillColor=#fff2cc;strokeColor=#d6b656;strokeWidth=0.3;" vertex="1" parent="1">
          <mxGeometry x="160" y="320" width="20" height="20" as="geometry" />
        </mxCell>
        <mxCell id="e1WzZySRsdqQACFZxS4t-54" value="" style="ellipse;whiteSpace=wrap;html=1;aspect=fixed;fillColor=#fff2cc;strokeColor=#d6b656;strokeWidth=0.3;" vertex="1" parent="1">
          <mxGeometry x="160" y="370" width="20" height="20" as="geometry" />
        </mxCell>
        <mxCell id="e1WzZySRsdqQACFZxS4t-55" value="" style="ellipse;whiteSpace=wrap;html=1;aspect=fixed;fillColor=#fff2cc;strokeColor=#d6b656;strokeWidth=0.3;" vertex="1" parent="1">
          <mxGeometry x="160" y="420" width="20" height="20" as="geometry" />
        </mxCell>
        <mxCell id="e1WzZySRsdqQACFZxS4t-56" value="" style="ellipse;whiteSpace=wrap;html=1;aspect=fixed;fillColor=#fff2cc;strokeColor=#d6b656;strokeWidth=0.3;" vertex="1" parent="1">
          <mxGeometry x="160" y="470" width="20" height="20" as="geometry" />
        </mxCell>
        <mxCell id="e1WzZySRsdqQACFZxS4t-57" value="" style="ellipse;whiteSpace=wrap;html=1;aspect=fixed;fillColor=#fff2cc;strokeColor=#d6b656;strokeWidth=0.3;" vertex="1" parent="1">
          <mxGeometry x="160" y="530" width="20" height="20" as="geometry" />
        </mxCell>
        <mxCell id="e1WzZySRsdqQACFZxS4t-58" value="" style="ellipse;whiteSpace=wrap;html=1;aspect=fixed;fillColor=#fff2cc;strokeColor=#d6b656;strokeWidth=0.3;" vertex="1" parent="1">
          <mxGeometry x="160" y="580" width="20" height="20" as="geometry" />
        </mxCell>
        <mxCell id="e1WzZySRsdqQACFZxS4t-59" value="" style="ellipse;whiteSpace=wrap;html=1;aspect=fixed;fillColor=#fff2cc;strokeColor=#d6b656;strokeWidth=0.3;" vertex="1" parent="1">
          <mxGeometry x="160" y="630" width="20" height="20" as="geometry" />
        </mxCell>
        <mxCell id="e1WzZySRsdqQACFZxS4t-60" value="Input Layer&lt;br&gt;" style="text;html=1;strokeColor=none;fillColor=none;align=center;verticalAlign=middle;whiteSpace=wrap;rounded=0;" vertex="1" parent="1">
          <mxGeometry x="70" y="680" width="40" height="20" as="geometry" />
        </mxCell>
        <mxCell id="e1WzZySRsdqQACFZxS4t-61" value="Hidden Layer&amp;nbsp;&lt;br&gt;" style="text;html=1;strokeColor=none;fillColor=none;align=center;verticalAlign=middle;whiteSpace=wrap;rounded=0;strokeWidth=0;" vertex="1" parent="1">
          <mxGeometry x="290" y="680" width="40" height="20" as="geometry" />
        </mxCell>
        <mxCell id="e1WzZySRsdqQACFZxS4t-62" value="Hidden Layer" style="text;html=1;strokeColor=none;fillColor=none;align=center;verticalAlign=middle;whiteSpace=wrap;rounded=0;strokeWidth=0.3;" vertex="1" parent="1">
          <mxGeometry x="410" y="680" width="40" height="20" as="geometry" />
        </mxCell>
        <mxCell id="e1WzZySRsdqQACFZxS4t-63" value="Hidden Layer&amp;nbsp;" style="text;html=1;strokeColor=none;fillColor=none;align=center;verticalAlign=middle;whiteSpace=wrap;rounded=0;strokeWidth=0.3;" vertex="1" parent="1">
          <mxGeometry x="470" y="680" width="40" height="20" as="geometry" />
        </mxCell>
        <mxCell id="e1WzZySRsdqQACFZxS4t-64" value="Softmax" style="text;html=1;strokeColor=none;fillColor=none;align=center;verticalAlign=middle;whiteSpace=wrap;rounded=0;fontStyle=1;strokeWidth=0.3;" vertex="1" parent="1">
          <mxGeometry x="670" y="268.5" width="40" height="20" as="geometry" />
        </mxCell>
        <mxCell id="e1WzZySRsdqQACFZxS4t-65" value="DoS" style="text;html=1;strokeColor=none;fillColor=none;align=center;verticalAlign=middle;whiteSpace=wrap;rounded=0;fontStyle=1;strokeWidth=0.5;" vertex="1" parent="1">
          <mxGeometry x="740" y="328.5" width="40" height="20" as="geometry" />
        </mxCell>
        <mxCell id="e1WzZySRsdqQACFZxS4t-66" value="Normal" style="text;html=1;strokeColor=none;fillColor=none;align=center;verticalAlign=middle;whiteSpace=wrap;rounded=0;fontStyle=1;strokeWidth=0.5;" vertex="1" parent="1">
          <mxGeometry x="740" y="390" width="40" height="20" as="geometry" />
        </mxCell>
        <mxCell id="e1WzZySRsdqQACFZxS4t-67" value="Tampering" style="text;html=1;strokeColor=none;fillColor=none;align=center;verticalAlign=middle;whiteSpace=wrap;rounded=0;fontStyle=1;strokeWidth=0.5;" vertex="1" parent="1">
          <mxGeometry x="750" y="458.5" width="40" height="20" as="geometry" />
        </mxCell>
        <mxCell id="e1WzZySRsdqQACFZxS4t-68" value="Snoofing&amp;nbsp;&lt;br&gt;" style="text;html=1;strokeColor=none;fillColor=none;align=center;verticalAlign=middle;whiteSpace=wrap;rounded=0;fontStyle=1;strokeWidth=0.5;" vertex="1" parent="1">
          <mxGeometry x="750" y="528.5" width="40" height="20" as="geometry" />
        </mxCell>
        <mxCell id="e1WzZySRsdqQACFZxS4t-69" value="" style="endArrow=none;html=1;entryX=0;entryY=1;entryDx=0;entryDy=0;strokeWidth=0.3;" edge="1" parent="1" target="e1WzZySRsdqQACFZxS4t-1">
          <mxGeometry width="50" height="50" relative="1" as="geometry">
            <mxPoint x="180" y="170" as="sourcePoint" />
            <mxPoint x="230" y="120" as="targetPoint" />
          </mxGeometry>
        </mxCell>
        <mxCell id="e1WzZySRsdqQACFZxS4t-71" value="" style="endArrow=none;html=1;entryX=0;entryY=1;entryDx=0;entryDy=0;exitX=1;exitY=0.5;exitDx=0;exitDy=0;strokeWidth=0.3;" edge="1" parent="1" source="e1WzZySRsdqQACFZxS4t-50" target="e1WzZySRsdqQACFZxS4t-2">
          <mxGeometry width="50" height="50" relative="1" as="geometry">
            <mxPoint x="190" y="180" as="sourcePoint" />
            <mxPoint x="310" y="180" as="targetPoint" />
          </mxGeometry>
        </mxCell>
        <mxCell id="e1WzZySRsdqQACFZxS4t-72" value="" style="endArrow=none;html=1;entryX=0;entryY=1;entryDx=0;entryDy=0;exitX=1;exitY=0.5;exitDx=0;exitDy=0;strokeWidth=0.3;" edge="1" parent="1" source="e1WzZySRsdqQACFZxS4t-51" target="e1WzZySRsdqQACFZxS4t-1">
          <mxGeometry width="50" height="50" relative="1" as="geometry">
            <mxPoint x="200" y="190" as="sourcePoint" />
            <mxPoint x="320" y="190" as="targetPoint" />
          </mxGeometry>
        </mxCell>
        <mxCell id="e1WzZySRsdqQACFZxS4t-73" value="" style="endArrow=none;html=1;exitX=1;exitY=0.5;exitDx=0;exitDy=0;strokeWidth=0.3;" edge="1" parent="1" source="e1WzZySRsdqQACFZxS4t-50">
          <mxGeometry width="50" height="50" relative="1" as="geometry">
            <mxPoint x="190" y="170" as="sourcePoint" />
            <mxPoint x="300" y="280" as="targetPoint" />
          </mxGeometry>
        </mxCell>
        <mxCell id="e1WzZySRsdqQACFZxS4t-74" value="" style="endArrow=none;html=1;strokeWidth=0.3;" edge="1" parent="1">
          <mxGeometry width="50" height="50" relative="1" as="geometry">
            <mxPoint x="180" y="170" as="sourcePoint" />
            <mxPoint x="300" y="330" as="targetPoint" />
          </mxGeometry>
        </mxCell>
        <mxCell id="e1WzZySRsdqQACFZxS4t-75" value="" style="endArrow=none;html=1;exitX=1;exitY=0.5;exitDx=0;exitDy=0;strokeWidth=0.3;" edge="1" parent="1" source="e1WzZySRsdqQACFZxS4t-50">
          <mxGeometry width="50" height="50" relative="1" as="geometry">
            <mxPoint x="200" y="190" as="sourcePoint" />
            <mxPoint x="300" y="380" as="targetPoint" />
          </mxGeometry>
        </mxCell>
        <mxCell id="e1WzZySRsdqQACFZxS4t-76" value="" style="endArrow=none;html=1;entryX=0;entryY=0.5;entryDx=0;entryDy=0;strokeWidth=0.3;" edge="1" parent="1" target="e1WzZySRsdqQACFZxS4t-9">
          <mxGeometry width="50" height="50" relative="1" as="geometry">
            <mxPoint x="180" y="170" as="sourcePoint" />
            <mxPoint x="322.9289321881347" y="342.9289321881347" as="targetPoint" />
          </mxGeometry>
        </mxCell>
        <mxCell id="e1WzZySRsdqQACFZxS4t-77" value="" style="endArrow=none;html=1;entryX=0;entryY=0.5;entryDx=0;entryDy=0;strokeWidth=0.3;" edge="1" parent="1" target="e1WzZySRsdqQACFZxS4t-10">
          <mxGeometry width="50" height="50" relative="1" as="geometry">
            <mxPoint x="180" y="170" as="sourcePoint" />
            <mxPoint x="332.9289321881347" y="352.9289321881347" as="targetPoint" />
          </mxGeometry>
        </mxCell>
        <mxCell id="e1WzZySRsdqQACFZxS4t-78" value="" style="endArrow=none;html=1;entryX=0;entryY=0.5;entryDx=0;entryDy=0;strokeWidth=0.3;" edge="1" parent="1" target="e1WzZySRsdqQACFZxS4t-11">
          <mxGeometry width="50" height="50" relative="1" as="geometry">
            <mxPoint x="180" y="170" as="sourcePoint" />
            <mxPoint x="342.9289321881347" y="362.9289321881347" as="targetPoint" />
          </mxGeometry>
        </mxCell>
        <mxCell id="e1WzZySRsdqQACFZxS4t-79" value="" style="endArrow=none;html=1;strokeWidth=0.3;" edge="1" parent="1">
          <mxGeometry width="50" height="50" relative="1" as="geometry">
            <mxPoint x="180" y="170" as="sourcePoint" />
            <mxPoint x="300" y="590" as="targetPoint" />
          </mxGeometry>
        </mxCell>
        <mxCell id="e1WzZySRsdqQACFZxS4t-80" value="" style="endArrow=none;html=1;entryX=0;entryY=0.5;entryDx=0;entryDy=0;strokeWidth=0.3;" edge="1" parent="1" target="e1WzZySRsdqQACFZxS4t-13">
          <mxGeometry width="50" height="50" relative="1" as="geometry">
            <mxPoint x="180" y="170" as="sourcePoint" />
            <mxPoint x="362.9289321881347" y="382.9289321881347" as="targetPoint" />
          </mxGeometry>
        </mxCell>
        <mxCell id="e1WzZySRsdqQACFZxS4t-81" value="" style="endArrow=none;html=1;entryX=0;entryY=1;entryDx=0;entryDy=0;exitX=1;exitY=0.5;exitDx=0;exitDy=0;strokeWidth=0.3;" edge="1" parent="1" source="e1WzZySRsdqQACFZxS4t-51" target="e1WzZySRsdqQACFZxS4t-2">
          <mxGeometry width="50" height="50" relative="1" as="geometry">
            <mxPoint x="260" y="250" as="sourcePoint" />
            <mxPoint x="372.9289321881347" y="392.9289321881347" as="targetPoint" />
          </mxGeometry>
        </mxCell>
        <mxCell id="e1WzZySRsdqQACFZxS4t-82" value="" style="endArrow=none;html=1;exitX=1;exitY=0.5;exitDx=0;exitDy=0;strokeWidth=0.3;" edge="1" parent="1" source="e1WzZySRsdqQACFZxS4t-51">
          <mxGeometry width="50" height="50" relative="1" as="geometry">
            <mxPoint x="270" y="260" as="sourcePoint" />
            <mxPoint x="300" y="330" as="targetPoint" />
          </mxGeometry>
        </mxCell>
        <mxCell id="e1WzZySRsdqQACFZxS4t-83" value="" style="endArrow=none;html=1;strokeWidth=0.3;" edge="1" parent="1">
          <mxGeometry width="50" height="50" relative="1" as="geometry">
            <mxPoint x="180" y="220" as="sourcePoint" />
            <mxPoint x="300" y="380" as="targetPoint" />
          </mxGeometry>
        </mxCell>
        <mxCell id="e1WzZySRsdqQACFZxS4t-84" value="" style="endArrow=none;html=1;strokeWidth=0.3;" edge="1" parent="1">
          <mxGeometry width="50" height="50" relative="1" as="geometry">
            <mxPoint x="180" y="220" as="sourcePoint" />
            <mxPoint x="300" y="430" as="targetPoint" />
          </mxGeometry>
        </mxCell>
        <mxCell id="e1WzZySRsdqQACFZxS4t-85" value="" style="endArrow=none;html=1;entryX=0;entryY=0.5;entryDx=0;entryDy=0;strokeWidth=0.3;" edge="1" parent="1" target="e1WzZySRsdqQACFZxS4t-10">
          <mxGeometry width="50" height="50" relative="1" as="geometry">
            <mxPoint x="180" y="220" as="sourcePoint" />
            <mxPoint x="412.9289321881347" y="432.9289321881347" as="targetPoint" />
          </mxGeometry>
        </mxCell>
        <mxCell id="e1WzZySRsdqQACFZxS4t-86" value="" style="endArrow=none;html=1;strokeWidth=0.3;" edge="1" parent="1">
          <mxGeometry width="50" height="50" relative="1" as="geometry">
            <mxPoint x="180" y="220" as="sourcePoint" />
            <mxPoint x="300" y="540" as="targetPoint" />
          </mxGeometry>
        </mxCell>
        <mxCell id="e1WzZySRsdqQACFZxS4t-87" value="" style="endArrow=none;html=1;strokeWidth=0.3;" edge="1" parent="1">
          <mxGeometry width="50" height="50" relative="1" as="geometry">
            <mxPoint x="180" y="220" as="sourcePoint" />
            <mxPoint x="300" y="590" as="targetPoint" />
          </mxGeometry>
        </mxCell>
        <mxCell id="e1WzZySRsdqQACFZxS4t-88" value="" style="endArrow=none;html=1;exitX=1;exitY=0.5;exitDx=0;exitDy=0;strokeWidth=0.3;" edge="1" parent="1" source="e1WzZySRsdqQACFZxS4t-51">
          <mxGeometry width="50" height="50" relative="1" as="geometry">
            <mxPoint x="330" y="320" as="sourcePoint" />
            <mxPoint x="300" y="640" as="targetPoint" />
          </mxGeometry>
        </mxCell>
        <mxCell id="e1WzZySRsdqQACFZxS4t-95" value="" style="endArrow=none;html=1;entryX=0;entryY=0.5;entryDx=0;entryDy=0;strokeWidth=0.3;" edge="1" parent="1">
          <mxGeometry width="50" height="50" relative="1" as="geometry">
            <mxPoint x="180" y="279" as="sourcePoint" />
            <mxPoint x="300" y="279" as="targetPoint" />
          </mxGeometry>
        </mxCell>
        <mxCell id="e1WzZySRsdqQACFZxS4t-96" value="" style="endArrow=none;html=1;entryX=0;entryY=0.5;entryDx=0;entryDy=0;strokeWidth=0.3;" edge="1" parent="1">
          <mxGeometry width="50" height="50" relative="1" as="geometry">
            <mxPoint x="180" y="329.5" as="sourcePoint" />
            <mxPoint x="300" y="329.5" as="targetPoint" />
          </mxGeometry>
        </mxCell>
        <mxCell id="e1WzZySRsdqQACFZxS4t-97" value="" style="endArrow=none;html=1;entryX=0;entryY=0.5;entryDx=0;entryDy=0;strokeWidth=0.3;" edge="1" parent="1">
          <mxGeometry width="50" height="50" relative="1" as="geometry">
            <mxPoint x="180" y="379.5" as="sourcePoint" />
            <mxPoint x="300" y="379.5" as="targetPoint" />
          </mxGeometry>
        </mxCell>
        <mxCell id="e1WzZySRsdqQACFZxS4t-98" value="" style="endArrow=none;html=1;entryX=0;entryY=0.5;entryDx=0;entryDy=0;strokeWidth=0.3;" edge="1" parent="1">
          <mxGeometry width="50" height="50" relative="1" as="geometry">
            <mxPoint x="180" y="429.5" as="sourcePoint" />
            <mxPoint x="300" y="429.5" as="targetPoint" />
          </mxGeometry>
        </mxCell>
        <mxCell id="e1WzZySRsdqQACFZxS4t-99" value="" style="endArrow=none;html=1;entryX=0;entryY=0.5;entryDx=0;entryDy=0;strokeWidth=0.3;" edge="1" parent="1">
          <mxGeometry width="50" height="50" relative="1" as="geometry">
            <mxPoint x="180" y="479.5" as="sourcePoint" />
            <mxPoint x="300" y="479.5" as="targetPoint" />
          </mxGeometry>
        </mxCell>
        <mxCell id="e1WzZySRsdqQACFZxS4t-100" value="" style="endArrow=none;html=1;entryX=0;entryY=0.5;entryDx=0;entryDy=0;strokeWidth=0.3;" edge="1" parent="1">
          <mxGeometry width="50" height="50" relative="1" as="geometry">
            <mxPoint x="180" y="539.5" as="sourcePoint" />
            <mxPoint x="300" y="539.5" as="targetPoint" />
          </mxGeometry>
        </mxCell>
        <mxCell id="e1WzZySRsdqQACFZxS4t-101" value="" style="endArrow=none;html=1;entryX=0;entryY=0.5;entryDx=0;entryDy=0;strokeWidth=0.3;" edge="1" parent="1">
          <mxGeometry width="50" height="50" relative="1" as="geometry">
            <mxPoint x="180" y="589.5" as="sourcePoint" />
            <mxPoint x="300" y="589.5" as="targetPoint" />
          </mxGeometry>
        </mxCell>
        <mxCell id="e1WzZySRsdqQACFZxS4t-102" value="" style="endArrow=none;html=1;entryX=0;entryY=0.5;entryDx=0;entryDy=0;strokeWidth=0.3;" edge="1" parent="1">
          <mxGeometry width="50" height="50" relative="1" as="geometry">
            <mxPoint x="180" y="639.5" as="sourcePoint" />
            <mxPoint x="300" y="639.5" as="targetPoint" />
          </mxGeometry>
        </mxCell>
        <mxCell id="e1WzZySRsdqQACFZxS4t-106" value="" style="endArrow=none;html=1;exitX=1;exitY=0.5;exitDx=0;exitDy=0;strokeWidth=0.3;" edge="1" parent="1" source="e1WzZySRsdqQACFZxS4t-53">
          <mxGeometry width="50" height="50" relative="1" as="geometry">
            <mxPoint x="190" y="339.5" as="sourcePoint" />
            <mxPoint x="300" y="380" as="targetPoint" />
          </mxGeometry>
        </mxCell>
        <mxCell id="e1WzZySRsdqQACFZxS4t-107" value="" style="endArrow=none;html=1;entryX=0;entryY=0.5;entryDx=0;entryDy=0;strokeWidth=0.3;" edge="1" parent="1" target="e1WzZySRsdqQACFZxS4t-3">
          <mxGeometry width="50" height="50" relative="1" as="geometry">
            <mxPoint x="180" y="330" as="sourcePoint" />
            <mxPoint x="320" y="349.5" as="targetPoint" />
          </mxGeometry>
        </mxCell>
        <mxCell id="e1WzZySRsdqQACFZxS4t-108" value="" style="endArrow=none;html=1;entryX=0;entryY=1;entryDx=0;entryDy=0;strokeWidth=0.3;" edge="1" parent="1" target="e1WzZySRsdqQACFZxS4t-2">
          <mxGeometry width="50" height="50" relative="1" as="geometry">
            <mxPoint x="180" y="280" as="sourcePoint" />
            <mxPoint x="300" y="230" as="targetPoint" />
          </mxGeometry>
        </mxCell>
        <mxCell id="e1WzZySRsdqQACFZxS4t-109" value="" style="endArrow=none;html=1;exitX=0;exitY=0.5;exitDx=0;exitDy=0;entryX=1;entryY=0.5;entryDx=0;entryDy=0;strokeWidth=0.3;" edge="1" parent="1" source="e1WzZySRsdqQACFZxS4t-8" target="e1WzZySRsdqQACFZxS4t-55">
          <mxGeometry width="50" height="50" relative="1" as="geometry">
            <mxPoint x="170" y="130" as="sourcePoint" />
            <mxPoint x="10" y="430" as="targetPoint" />
          </mxGeometry>
        </mxCell>
        <mxCell id="e1WzZySRsdqQACFZxS4t-110" value="" style="endArrow=none;html=1;entryX=0;entryY=0.5;entryDx=0;entryDy=0;exitX=1;exitY=0.5;exitDx=0;exitDy=0;strokeWidth=0.3;" edge="1" parent="1" source="e1WzZySRsdqQACFZxS4t-54" target="e1WzZySRsdqQACFZxS4t-4">
          <mxGeometry width="50" height="50" relative="1" as="geometry">
            <mxPoint x="230" y="379.5" as="sourcePoint" />
            <mxPoint x="350" y="379.5" as="targetPoint" />
          </mxGeometry>
        </mxCell>
        <mxCell id="e1WzZySRsdqQACFZxS4t-111" value="" style="endArrow=none;html=1;exitX=1;exitY=0.5;exitDx=0;exitDy=0;strokeWidth=0.3;" edge="1" parent="1" source="e1WzZySRsdqQACFZxS4t-55">
          <mxGeometry width="50" height="50" relative="1" as="geometry">
            <mxPoint x="240" y="389.5" as="sourcePoint" />
            <mxPoint x="300" y="480" as="targetPoint" />
          </mxGeometry>
        </mxCell>
        <mxCell id="e1WzZySRsdqQACFZxS4t-112" value="" style="endArrow=none;html=1;entryX=1;entryY=0.5;entryDx=0;entryDy=0;strokeWidth=0.3;" edge="1" parent="1" target="e1WzZySRsdqQACFZxS4t-56">
          <mxGeometry width="50" height="50" relative="1" as="geometry">
            <mxPoint x="300" y="590" as="sourcePoint" />
            <mxPoint x="220" y="510" as="targetPoint" />
          </mxGeometry>
        </mxCell>
        <mxCell id="e1WzZySRsdqQACFZxS4t-113" value="" style="endArrow=none;html=1;entryX=0;entryY=0.5;entryDx=0;entryDy=0;strokeWidth=0.3;" edge="1" parent="1" target="e1WzZySRsdqQACFZxS4t-10">
          <mxGeometry width="50" height="50" relative="1" as="geometry">
            <mxPoint x="180" y="540" as="sourcePoint" />
            <mxPoint x="290" y="509.5" as="targetPoint" />
          </mxGeometry>
        </mxCell>
        <mxCell id="e1WzZySRsdqQACFZxS4t-114" value="" style="endArrow=none;html=1;entryX=1;entryY=0.5;entryDx=0;entryDy=0;exitX=0;exitY=0.5;exitDx=0;exitDy=0;strokeWidth=0.3;" edge="1" parent="1" source="e1WzZySRsdqQACFZxS4t-9" target="e1WzZySRsdqQACFZxS4t-58">
          <mxGeometry width="50" height="50" relative="1" as="geometry">
            <mxPoint x="270" y="419.5" as="sourcePoint" />
            <mxPoint x="390" y="419.5" as="targetPoint" />
          </mxGeometry>
        </mxCell>
        <mxCell id="e1WzZySRsdqQACFZxS4t-115" value="" style="endArrow=none;html=1;exitX=1;exitY=0.5;exitDx=0;exitDy=0;strokeWidth=0.3;" edge="1" parent="1" source="e1WzZySRsdqQACFZxS4t-59">
          <mxGeometry width="50" height="50" relative="1" as="geometry">
            <mxPoint x="280" y="429.5" as="sourcePoint" />
            <mxPoint x="300" y="430" as="targetPoint" />
          </mxGeometry>
        </mxCell>
        <mxCell id="e1WzZySRsdqQACFZxS4t-116" value="" style="endArrow=none;html=1;strokeWidth=0.3;" edge="1" parent="1">
          <mxGeometry width="50" height="50" relative="1" as="geometry">
            <mxPoint x="180" y="640" as="sourcePoint" />
            <mxPoint x="300" y="540" as="targetPoint" />
          </mxGeometry>
        </mxCell>
        <mxCell id="e1WzZySRsdqQACFZxS4t-117" value="" style="endArrow=none;html=1;entryX=0;entryY=0.5;entryDx=0;entryDy=0;exitX=1;exitY=0.5;exitDx=0;exitDy=0;strokeWidth=0.3;" edge="1" parent="1" source="e1WzZySRsdqQACFZxS4t-59" target="e1WzZySRsdqQACFZxS4t-12">
          <mxGeometry width="50" height="50" relative="1" as="geometry">
            <mxPoint x="177" y="640" as="sourcePoint" />
            <mxPoint x="420" y="449.5" as="targetPoint" />
          </mxGeometry>
        </mxCell>
        <mxCell id="e1WzZySRsdqQACFZxS4t-118" value="" style="endArrow=none;html=1;entryX=0;entryY=0.5;entryDx=0;entryDy=0;strokeWidth=0.3;" edge="1" parent="1" target="e1WzZySRsdqQACFZxS4t-9">
          <mxGeometry width="50" height="50" relative="1" as="geometry">
            <mxPoint x="180" y="480" as="sourcePoint" />
            <mxPoint x="430" y="459.5" as="targetPoint" />
          </mxGeometry>
        </mxCell>
        <mxCell id="e1WzZySRsdqQACFZxS4t-119" value="" style="endArrow=none;html=1;exitX=1;exitY=0.5;exitDx=0;exitDy=0;strokeWidth=0.3;" edge="1" parent="1" source="e1WzZySRsdqQACFZxS4t-55">
          <mxGeometry width="50" height="50" relative="1" as="geometry">
            <mxPoint x="190" y="430" as="sourcePoint" />
            <mxPoint x="300" y="330" as="targetPoint" />
          </mxGeometry>
        </mxCell>
        <mxCell id="e1WzZySRsdqQACFZxS4t-120" value="" style="endArrow=none;html=1;entryX=0;entryY=0.5;entryDx=0;entryDy=0;strokeWidth=0.3;" edge="1" parent="1" target="e1WzZySRsdqQACFZxS4t-9">
          <mxGeometry width="50" height="50" relative="1" as="geometry">
            <mxPoint x="180" y="380" as="sourcePoint" />
            <mxPoint x="300" y="389" as="targetPoint" />
          </mxGeometry>
        </mxCell>
        <mxCell id="e1WzZySRsdqQACFZxS4t-121" value="" style="endArrow=none;html=1;entryX=0;entryY=0.5;entryDx=0;entryDy=0;strokeWidth=0.3;" edge="1" parent="1" target="e1WzZySRsdqQACFZxS4t-12">
          <mxGeometry width="50" height="50" relative="1" as="geometry">
            <mxPoint x="180" y="540" as="sourcePoint" />
            <mxPoint x="290" y="560" as="targetPoint" />
          </mxGeometry>
        </mxCell>
        <mxCell id="e1WzZySRsdqQACFZxS4t-122" value="" style="endArrow=none;html=1;exitX=1;exitY=0.5;exitDx=0;exitDy=0;strokeWidth=0.3;" edge="1" parent="1" source="e1WzZySRsdqQACFZxS4t-55">
          <mxGeometry width="50" height="50" relative="1" as="geometry">
            <mxPoint x="20" y="419" as="sourcePoint" />
            <mxPoint x="300" y="280" as="targetPoint" />
          </mxGeometry>
        </mxCell>
        <mxCell id="e1WzZySRsdqQACFZxS4t-123" value="" style="endArrow=none;html=1;strokeWidth=0.3;" edge="1" parent="1">
          <mxGeometry width="50" height="50" relative="1" as="geometry">
            <mxPoint x="180" y="540" as="sourcePoint" />
            <mxPoint x="300" y="430" as="targetPoint" />
          </mxGeometry>
        </mxCell>
        <mxCell id="e1WzZySRsdqQACFZxS4t-124" value="" style="endArrow=none;html=1;entryX=0;entryY=0.5;entryDx=0;entryDy=0;strokeWidth=0.3;" edge="1" parent="1" target="e1WzZySRsdqQACFZxS4t-8">
          <mxGeometry width="50" height="50" relative="1" as="geometry">
            <mxPoint x="180" y="639.5" as="sourcePoint" />
            <mxPoint x="300" y="639.5" as="targetPoint" />
          </mxGeometry>
        </mxCell>
        <mxCell id="e1WzZySRsdqQACFZxS4t-125" value="" style="endArrow=none;html=1;strokeWidth=0.3;" edge="1" parent="1">
          <mxGeometry width="50" height="50" relative="1" as="geometry">
            <mxPoint x="180" y="639.5" as="sourcePoint" />
            <mxPoint x="300" y="330" as="targetPoint" />
          </mxGeometry>
        </mxCell>
        <mxCell id="e1WzZySRsdqQACFZxS4t-126" value="" style="endArrow=none;html=1;entryX=0;entryY=0.5;entryDx=0;entryDy=0;strokeWidth=0.3;" edge="1" parent="1" target="e1WzZySRsdqQACFZxS4t-3">
          <mxGeometry width="50" height="50" relative="1" as="geometry">
            <mxPoint x="180" y="639.5" as="sourcePoint" />
            <mxPoint x="300" y="639.5" as="targetPoint" />
          </mxGeometry>
        </mxCell>
        <mxCell id="e1WzZySRsdqQACFZxS4t-127" value="" style="endArrow=none;html=1;strokeWidth=0.3;" edge="1" parent="1">
          <mxGeometry width="50" height="50" relative="1" as="geometry">
            <mxPoint x="180" y="639.5" as="sourcePoint" />
            <mxPoint x="300" y="220" as="targetPoint" />
          </mxGeometry>
        </mxCell>
        <mxCell id="e1WzZySRsdqQACFZxS4t-128" value="" style="endArrow=none;html=1;entryX=0;entryY=1;entryDx=0;entryDy=0;strokeWidth=0.3;" edge="1" parent="1" target="e1WzZySRsdqQACFZxS4t-1">
          <mxGeometry width="50" height="50" relative="1" as="geometry">
            <mxPoint x="180" y="639.5" as="sourcePoint" />
            <mxPoint x="300" y="639.5" as="targetPoint" />
          </mxGeometry>
        </mxCell>
        <mxCell id="e1WzZySRsdqQACFZxS4t-129" value="" style="endArrow=none;html=1;exitX=1;exitY=0.5;exitDx=0;exitDy=0;entryX=0;entryY=1;entryDx=0;entryDy=0;strokeWidth=0.3;" edge="1" parent="1" source="e1WzZySRsdqQACFZxS4t-52" target="e1WzZySRsdqQACFZxS4t-1">
          <mxGeometry width="50" height="50" relative="1" as="geometry">
            <mxPoint x="190" y="230" as="sourcePoint" />
            <mxPoint x="300" y="180" as="targetPoint" />
          </mxGeometry>
        </mxCell>
        <mxCell id="e1WzZySRsdqQACFZxS4t-130" value="" style="endArrow=none;html=1;exitX=1;exitY=0.5;exitDx=0;exitDy=0;strokeWidth=0.3;" edge="1" parent="1" source="e1WzZySRsdqQACFZxS4t-52">
          <mxGeometry width="50" height="50" relative="1" as="geometry">
            <mxPoint x="200" y="240" as="sourcePoint" />
            <mxPoint x="300" y="330" as="targetPoint" />
          </mxGeometry>
        </mxCell>
        <mxCell id="e1WzZySRsdqQACFZxS4t-131" value="" style="endArrow=none;html=1;exitX=1;exitY=0.5;exitDx=0;exitDy=0;strokeWidth=0.3;" edge="1" parent="1" source="e1WzZySRsdqQACFZxS4t-53">
          <mxGeometry width="50" height="50" relative="1" as="geometry">
            <mxPoint x="177.07" y="329.93" as="sourcePoint" />
            <mxPoint x="300" y="220" as="targetPoint" />
          </mxGeometry>
        </mxCell>
        <mxCell id="e1WzZySRsdqQACFZxS4t-132" value="" style="endArrow=none;html=1;exitX=1;exitY=0.5;exitDx=0;exitDy=0;strokeWidth=0.3;" edge="1" parent="1">
          <mxGeometry width="50" height="50" relative="1" as="geometry">
            <mxPoint x="180" y="329.93" as="sourcePoint" />
            <mxPoint x="303" y="170" as="targetPoint" />
          </mxGeometry>
        </mxCell>
        <mxCell id="e1WzZySRsdqQACFZxS4t-133" value="" style="endArrow=none;html=1;entryX=0;entryY=0.5;entryDx=0;entryDy=0;exitX=1;exitY=0.5;exitDx=0;exitDy=0;strokeWidth=0.3;" edge="1" parent="1" target="e1WzZySRsdqQACFZxS4t-9">
          <mxGeometry width="50" height="50" relative="1" as="geometry">
            <mxPoint x="180" y="329.93" as="sourcePoint" />
            <mxPoint x="302.9289321881347" y="280.0010678118653" as="targetPoint" />
          </mxGeometry>
        </mxCell>
        <mxCell id="e1WzZySRsdqQACFZxS4t-134" value="" style="endArrow=none;html=1;exitX=1;exitY=0.5;exitDx=0;exitDy=0;strokeWidth=0.3;" edge="1" parent="1" source="e1WzZySRsdqQACFZxS4t-52">
          <mxGeometry width="50" height="50" relative="1" as="geometry">
            <mxPoint x="177.07" y="309.93" as="sourcePoint" />
            <mxPoint x="300" y="380" as="targetPoint" />
          </mxGeometry>
        </mxCell>
        <mxCell id="e1WzZySRsdqQACFZxS4t-135" value="" style="endArrow=none;html=1;entryX=0;entryY=0.5;entryDx=0;entryDy=0;exitX=1;exitY=0.5;exitDx=0;exitDy=0;strokeWidth=0.3;" edge="1" parent="1" target="e1WzZySRsdqQACFZxS4t-9">
          <mxGeometry width="50" height="50" relative="1" as="geometry">
            <mxPoint x="180" y="280" as="sourcePoint" />
            <mxPoint x="302.9289321881347" y="230.0710678118653" as="targetPoint" />
          </mxGeometry>
        </mxCell>
        <mxCell id="e1WzZySRsdqQACFZxS4t-136" value="" style="endArrow=none;html=1;strokeWidth=0.3;" edge="1" parent="1">
          <mxGeometry width="50" height="50" relative="1" as="geometry">
            <mxPoint x="180" y="280" as="sourcePoint" />
            <mxPoint x="300" y="480" as="targetPoint" />
          </mxGeometry>
        </mxCell>
        <mxCell id="e1WzZySRsdqQACFZxS4t-137" value="" style="endArrow=none;html=1;strokeWidth=0.3;" edge="1" parent="1">
          <mxGeometry width="50" height="50" relative="1" as="geometry">
            <mxPoint x="180" y="280" as="sourcePoint" />
            <mxPoint x="300" y="540" as="targetPoint" />
          </mxGeometry>
        </mxCell>
        <mxCell id="e1WzZySRsdqQACFZxS4t-138" value="" style="endArrow=none;html=1;entryX=0;entryY=0.5;entryDx=0;entryDy=0;exitX=1;exitY=0.5;exitDx=0;exitDy=0;strokeWidth=0.3;" edge="1" parent="1" target="e1WzZySRsdqQACFZxS4t-12">
          <mxGeometry width="50" height="50" relative="1" as="geometry">
            <mxPoint x="180" y="280" as="sourcePoint" />
            <mxPoint x="302.9289321881347" y="230.0710678118653" as="targetPoint" />
          </mxGeometry>
        </mxCell>
        <mxCell id="e1WzZySRsdqQACFZxS4t-139" value="" style="endArrow=none;html=1;entryX=0;entryY=0.5;entryDx=0;entryDy=0;exitX=1;exitY=0.5;exitDx=0;exitDy=0;strokeWidth=0.3;" edge="1" parent="1" target="e1WzZySRsdqQACFZxS4t-12">
          <mxGeometry width="50" height="50" relative="1" as="geometry">
            <mxPoint x="180" y="280" as="sourcePoint" />
            <mxPoint x="302.9289321881347" y="230.0710678118653" as="targetPoint" />
          </mxGeometry>
        </mxCell>
        <mxCell id="e1WzZySRsdqQACFZxS4t-140" value="" style="endArrow=none;html=1;entryX=0;entryY=0.5;entryDx=0;entryDy=0;exitX=1;exitY=0.5;exitDx=0;exitDy=0;strokeWidth=0.3;" edge="1" parent="1" target="e1WzZySRsdqQACFZxS4t-13">
          <mxGeometry width="50" height="50" relative="1" as="geometry">
            <mxPoint x="180" y="280" as="sourcePoint" />
            <mxPoint x="302.9289321881347" y="230.0710678118653" as="targetPoint" />
          </mxGeometry>
        </mxCell>
        <mxCell id="e1WzZySRsdqQACFZxS4t-141" value="" style="endArrow=none;html=1;exitX=1;exitY=0.5;exitDx=0;exitDy=0;strokeWidth=0.3;" edge="1" parent="1">
          <mxGeometry width="50" height="50" relative="1" as="geometry">
            <mxPoint x="180" y="329.93" as="sourcePoint" />
            <mxPoint x="300" y="640" as="targetPoint" />
          </mxGeometry>
        </mxCell>
        <mxCell id="e1WzZySRsdqQACFZxS4t-142" value="" style="endArrow=none;html=1;exitX=1;exitY=0.5;exitDx=0;exitDy=0;strokeWidth=0.3;" edge="1" parent="1">
          <mxGeometry width="50" height="50" relative="1" as="geometry">
            <mxPoint x="180" y="379.93" as="sourcePoint" />
            <mxPoint x="300" y="280" as="targetPoint" />
          </mxGeometry>
        </mxCell>
        <mxCell id="e1WzZySRsdqQACFZxS4t-143" value="" style="endArrow=none;html=1;strokeWidth=0.3;" edge="1" parent="1">
          <mxGeometry width="50" height="50" relative="1" as="geometry">
            <mxPoint x="180" y="430" as="sourcePoint" />
            <mxPoint x="300" y="590" as="targetPoint" />
          </mxGeometry>
        </mxCell>
        <mxCell id="e1WzZySRsdqQACFZxS4t-144" value="" style="endArrow=none;html=1;strokeWidth=0.3;" edge="1" parent="1">
          <mxGeometry width="50" height="50" relative="1" as="geometry">
            <mxPoint x="180" y="380" as="sourcePoint" />
            <mxPoint x="300" y="540" as="targetPoint" />
          </mxGeometry>
        </mxCell>
        <mxCell id="e1WzZySRsdqQACFZxS4t-145" value="" style="endArrow=none;html=1;entryX=0;entryY=0.5;entryDx=0;entryDy=0;strokeWidth=0.3;" edge="1" parent="1" target="e1WzZySRsdqQACFZxS4t-13">
          <mxGeometry width="50" height="50" relative="1" as="geometry">
            <mxPoint x="180" y="380" as="sourcePoint" />
            <mxPoint x="302.9289321881347" y="340.0010678118653" as="targetPoint" />
          </mxGeometry>
        </mxCell>
        <mxCell id="e1WzZySRsdqQACFZxS4t-146" value="" style="endArrow=none;html=1;entryX=0;entryY=0.5;entryDx=0;entryDy=0;exitX=1;exitY=0.5;exitDx=0;exitDy=0;strokeWidth=0.3;" edge="1" parent="1" target="e1WzZySRsdqQACFZxS4t-13">
          <mxGeometry width="50" height="50" relative="1" as="geometry">
            <mxPoint x="180" y="429.93" as="sourcePoint" />
            <mxPoint x="302.9289321881347" y="380.0010678118653" as="targetPoint" />
          </mxGeometry>
        </mxCell>
        <mxCell id="e1WzZySRsdqQACFZxS4t-147" value="" style="endArrow=none;html=1;entryX=0;entryY=0.5;entryDx=0;entryDy=0;strokeWidth=0.3;" edge="1" parent="1" target="e1WzZySRsdqQACFZxS4t-8">
          <mxGeometry width="50" height="50" relative="1" as="geometry">
            <mxPoint x="180" y="480" as="sourcePoint" />
            <mxPoint x="300" y="390" as="targetPoint" />
          </mxGeometry>
        </mxCell>
        <mxCell id="e1WzZySRsdqQACFZxS4t-148" value="" style="endArrow=none;html=1;strokeWidth=0.3;" edge="1" parent="1">
          <mxGeometry width="50" height="50" relative="1" as="geometry">
            <mxPoint x="180" y="480" as="sourcePoint" />
            <mxPoint x="300" y="330" as="targetPoint" />
          </mxGeometry>
        </mxCell>
        <mxCell id="e1WzZySRsdqQACFZxS4t-149" value="" style="endArrow=none;html=1;entryX=0;entryY=0.5;entryDx=0;entryDy=0;exitX=1;exitY=0.5;exitDx=0;exitDy=0;strokeWidth=0.3;" edge="1" parent="1" target="e1WzZySRsdqQACFZxS4t-3">
          <mxGeometry width="50" height="50" relative="1" as="geometry">
            <mxPoint x="180" y="479.93" as="sourcePoint" />
            <mxPoint x="302.9289321881347" y="430.0010678118653" as="targetPoint" />
          </mxGeometry>
        </mxCell>
        <mxCell id="e1WzZySRsdqQACFZxS4t-150" value="" style="endArrow=none;html=1;exitX=1;exitY=0.5;exitDx=0;exitDy=0;strokeWidth=0.3;" edge="1" parent="1">
          <mxGeometry width="50" height="50" relative="1" as="geometry">
            <mxPoint x="180" y="479.93" as="sourcePoint" />
            <mxPoint x="303" y="170" as="targetPoint" />
          </mxGeometry>
        </mxCell>
        <mxCell id="e1WzZySRsdqQACFZxS4t-151" value="" style="endArrow=none;html=1;exitX=1;exitY=0.5;exitDx=0;exitDy=0;strokeWidth=0.3;" edge="1" parent="1">
          <mxGeometry width="50" height="50" relative="1" as="geometry">
            <mxPoint x="180" y="539.9300000000001" as="sourcePoint" />
            <mxPoint x="300" y="380" as="targetPoint" />
          </mxGeometry>
        </mxCell>
        <mxCell id="e1WzZySRsdqQACFZxS4t-152" value="" style="endArrow=none;html=1;entryX=0;entryY=0.5;entryDx=0;entryDy=0;exitX=1;exitY=0.5;exitDx=0;exitDy=0;strokeWidth=0.3;" edge="1" parent="1" target="e1WzZySRsdqQACFZxS4t-13">
          <mxGeometry width="50" height="50" relative="1" as="geometry">
            <mxPoint x="180" y="539.9300000000001" as="sourcePoint" />
            <mxPoint x="302.9289321881347" y="490.0010678118653" as="targetPoint" />
          </mxGeometry>
        </mxCell>
        <mxCell id="e1WzZySRsdqQACFZxS4t-153" value="" style="endArrow=none;html=1;exitX=1;exitY=0.5;exitDx=0;exitDy=0;strokeWidth=0.3;" edge="1" parent="1">
          <mxGeometry width="50" height="50" relative="1" as="geometry">
            <mxPoint x="180" y="589.9300000000001" as="sourcePoint" />
            <mxPoint x="300" y="330" as="targetPoint" />
          </mxGeometry>
        </mxCell>
        <mxCell id="e1WzZySRsdqQACFZxS4t-154" value="" style="endArrow=none;html=1;entryX=0;entryY=0.5;entryDx=0;entryDy=0;exitX=1;exitY=0.5;exitDx=0;exitDy=0;strokeWidth=0.3;" edge="1" parent="1" target="e1WzZySRsdqQACFZxS4t-13">
          <mxGeometry width="50" height="50" relative="1" as="geometry">
            <mxPoint x="180" y="589.9300000000001" as="sourcePoint" />
            <mxPoint x="302.9289321881347" y="540.0010678118654" as="targetPoint" />
          </mxGeometry>
        </mxCell>
        <mxCell id="e1WzZySRsdqQACFZxS4t-155" value="" style="endArrow=none;html=1;exitX=1;exitY=0.5;exitDx=0;exitDy=0;strokeWidth=0.3;" edge="1" parent="1">
          <mxGeometry width="50" height="50" relative="1" as="geometry">
            <mxPoint x="180" y="589.9300000000001" as="sourcePoint" />
            <mxPoint x="300" y="540" as="targetPoint" />
          </mxGeometry>
        </mxCell>
        <mxCell id="e1WzZySRsdqQACFZxS4t-156" value="" style="endArrow=none;html=1;exitX=1;exitY=0.5;exitDx=0;exitDy=0;strokeWidth=0.3;" edge="1" parent="1">
          <mxGeometry width="50" height="50" relative="1" as="geometry">
            <mxPoint x="181" y="590.9300000000001" as="sourcePoint" />
            <mxPoint x="301" y="171" as="targetPoint" />
          </mxGeometry>
        </mxCell>
        <mxCell id="e1WzZySRsdqQACFZxS4t-157" value="" style="endArrow=none;html=1;exitX=1;exitY=0.5;exitDx=0;exitDy=0;strokeWidth=0.3;" edge="1" parent="1">
          <mxGeometry width="50" height="50" relative="1" as="geometry">
            <mxPoint x="180" y="539.93" as="sourcePoint" />
            <mxPoint x="300" y="330" as="targetPoint" />
          </mxGeometry>
        </mxCell>
        <mxCell id="e1WzZySRsdqQACFZxS4t-158" value="" style="endArrow=none;html=1;exitX=1;exitY=0.5;exitDx=0;exitDy=0;strokeWidth=0.3;" edge="1" parent="1">
          <mxGeometry width="50" height="50" relative="1" as="geometry">
            <mxPoint x="180" y="539.93" as="sourcePoint" />
            <mxPoint x="300" y="280" as="targetPoint" />
          </mxGeometry>
        </mxCell>
        <mxCell id="e1WzZySRsdqQACFZxS4t-159" value="" style="endArrow=none;html=1;exitX=1;exitY=0.5;exitDx=0;exitDy=0;strokeWidth=0.3;" edge="1" parent="1">
          <mxGeometry width="50" height="50" relative="1" as="geometry">
            <mxPoint x="180" y="539.93" as="sourcePoint" />
            <mxPoint x="303" y="220" as="targetPoint" />
          </mxGeometry>
        </mxCell>
        <mxCell id="e1WzZySRsdqQACFZxS4t-160" value="" style="ellipse;whiteSpace=wrap;html=1;aspect=fixed;fillColor=#fff2cc;strokeColor=#d6b656;strokeWidth=0.3;" vertex="1" parent="1">
          <mxGeometry x="580" y="154" width="20" height="20" as="geometry" />
        </mxCell>
        <mxCell id="e1WzZySRsdqQACFZxS4t-161" value="" style="ellipse;whiteSpace=wrap;html=1;aspect=fixed;fillColor=#fff2cc;strokeColor=#d6b656;strokeWidth=0.3;" vertex="1" parent="1">
          <mxGeometry x="580" y="202.5" width="20" height="20" as="geometry" />
        </mxCell>
        <mxCell id="e1WzZySRsdqQACFZxS4t-162" value="" style="ellipse;whiteSpace=wrap;html=1;aspect=fixed;fillColor=#fff2cc;strokeColor=#d6b656;strokeWidth=0.3;" vertex="1" parent="1">
          <mxGeometry x="580" y="268.5" width="20" height="20" as="geometry" />
        </mxCell>
        <mxCell id="e1WzZySRsdqQACFZxS4t-163" value="" style="ellipse;whiteSpace=wrap;html=1;aspect=fixed;fillColor=#fff2cc;strokeColor=#d6b656;strokeWidth=0.3;" vertex="1" parent="1">
          <mxGeometry x="580" y="318.5" width="20" height="20" as="geometry" />
        </mxCell>
        <mxCell id="e1WzZySRsdqQACFZxS4t-164" value="" style="ellipse;whiteSpace=wrap;html=1;aspect=fixed;fillColor=#fff2cc;strokeColor=#d6b656;strokeWidth=0.3;" vertex="1" parent="1">
          <mxGeometry x="580" y="368.5" width="20" height="20" as="geometry" />
        </mxCell>
        <mxCell id="e1WzZySRsdqQACFZxS4t-165" value="" style="ellipse;whiteSpace=wrap;html=1;aspect=fixed;fillColor=#fff2cc;strokeColor=#d6b656;strokeWidth=0.3;" vertex="1" parent="1">
          <mxGeometry x="580" y="418.5" width="20" height="20" as="geometry" />
        </mxCell>
        <mxCell id="e1WzZySRsdqQACFZxS4t-166" value="" style="ellipse;whiteSpace=wrap;html=1;aspect=fixed;fillColor=#fff2cc;strokeColor=#d6b656;strokeWidth=0.3;" vertex="1" parent="1">
          <mxGeometry x="580" y="468.5" width="20" height="20" as="geometry" />
        </mxCell>
        <mxCell id="e1WzZySRsdqQACFZxS4t-167" value="" style="ellipse;whiteSpace=wrap;html=1;aspect=fixed;fillColor=#fff2cc;strokeColor=#d6b656;strokeWidth=0.3;" vertex="1" parent="1">
          <mxGeometry x="580" y="528.5" width="20" height="20" as="geometry" />
        </mxCell>
        <mxCell id="e1WzZySRsdqQACFZxS4t-168" value="" style="ellipse;whiteSpace=wrap;html=1;aspect=fixed;fillColor=#fff2cc;strokeColor=#d6b656;strokeWidth=0.3;" vertex="1" parent="1">
          <mxGeometry x="580" y="578.5" width="20" height="20" as="geometry" />
        </mxCell>
        <mxCell id="e1WzZySRsdqQACFZxS4t-169" value="" style="ellipse;whiteSpace=wrap;html=1;aspect=fixed;fillColor=#fff2cc;strokeColor=#d6b656;strokeWidth=0.3;" vertex="1" parent="1">
          <mxGeometry x="580" y="628.5" width="20" height="20" as="geometry" />
        </mxCell>
        <mxCell id="e1WzZySRsdqQACFZxS4t-170" value="" style="ellipse;whiteSpace=wrap;html=1;aspect=fixed;fillColor=#fff2cc;strokeColor=#d6b656;strokeWidth=0.3;" vertex="1" parent="1">
          <mxGeometry x="440" y="158.5" width="20" height="20" as="geometry" />
        </mxCell>
        <mxCell id="e1WzZySRsdqQACFZxS4t-171" value="" style="ellipse;whiteSpace=wrap;html=1;aspect=fixed;fillColor=#fff2cc;strokeColor=#d6b656;strokeWidth=0.3;" vertex="1" parent="1">
          <mxGeometry x="440" y="210" width="20" height="20" as="geometry" />
        </mxCell>
        <mxCell id="e1WzZySRsdqQACFZxS4t-172" value="" style="ellipse;whiteSpace=wrap;html=1;aspect=fixed;fillColor=#fff2cc;strokeColor=#d6b656;strokeWidth=0.3;" vertex="1" parent="1">
          <mxGeometry x="440" y="268.5" width="20" height="20" as="geometry" />
        </mxCell>
        <mxCell id="e1WzZySRsdqQACFZxS4t-173" value="" style="ellipse;whiteSpace=wrap;html=1;aspect=fixed;fillColor=#fff2cc;strokeColor=#d6b656;strokeWidth=0.3;" vertex="1" parent="1">
          <mxGeometry x="440" y="318.5" width="20" height="20" as="geometry" />
        </mxCell>
        <mxCell id="e1WzZySRsdqQACFZxS4t-174" value="" style="ellipse;whiteSpace=wrap;html=1;aspect=fixed;fillColor=#fff2cc;strokeColor=#d6b656;strokeWidth=0.3;" vertex="1" parent="1">
          <mxGeometry x="440" y="368.5" width="20" height="20" as="geometry" />
        </mxCell>
        <mxCell id="e1WzZySRsdqQACFZxS4t-175" value="" style="ellipse;whiteSpace=wrap;html=1;aspect=fixed;fillColor=#fff2cc;strokeColor=#d6b656;strokeWidth=0.3;" vertex="1" parent="1">
          <mxGeometry x="440" y="418.5" width="20" height="20" as="geometry" />
        </mxCell>
        <mxCell id="e1WzZySRsdqQACFZxS4t-176" value="" style="ellipse;whiteSpace=wrap;html=1;aspect=fixed;fillColor=#fff2cc;strokeColor=#d6b656;strokeWidth=0.3;" vertex="1" parent="1">
          <mxGeometry x="440" y="468.5" width="20" height="20" as="geometry" />
        </mxCell>
        <mxCell id="e1WzZySRsdqQACFZxS4t-177" value="" style="ellipse;whiteSpace=wrap;html=1;aspect=fixed;fillColor=#fff2cc;strokeColor=#d6b656;strokeWidth=0.3;" vertex="1" parent="1">
          <mxGeometry x="440" y="528.5" width="20" height="20" as="geometry" />
        </mxCell>
        <mxCell id="e1WzZySRsdqQACFZxS4t-178" value="" style="ellipse;whiteSpace=wrap;html=1;aspect=fixed;fillColor=#fff2cc;strokeColor=#d6b656;strokeWidth=0.3;" vertex="1" parent="1">
          <mxGeometry x="440" y="578.5" width="20" height="20" as="geometry" />
        </mxCell>
        <mxCell id="e1WzZySRsdqQACFZxS4t-179" value="" style="ellipse;whiteSpace=wrap;html=1;aspect=fixed;fillColor=#fff2cc;strokeColor=#d6b656;strokeWidth=0.3;" vertex="1" parent="1">
          <mxGeometry x="440" y="628.5" width="20" height="20" as="geometry" />
        </mxCell>
        <mxCell id="e1WzZySRsdqQACFZxS4t-180" value="" style="endArrow=none;html=1;entryX=0;entryY=1;entryDx=0;entryDy=0;strokeWidth=0.3;" edge="1" parent="1" target="e1WzZySRsdqQACFZxS4t-160">
          <mxGeometry width="50" height="50" relative="1" as="geometry">
            <mxPoint x="460" y="168.5" as="sourcePoint" />
            <mxPoint x="510" y="118.5" as="targetPoint" />
          </mxGeometry>
        </mxCell>
        <mxCell id="e1WzZySRsdqQACFZxS4t-181" value="" style="endArrow=none;html=1;entryX=0;entryY=1;entryDx=0;entryDy=0;exitX=1;exitY=0.5;exitDx=0;exitDy=0;strokeWidth=0.3;" edge="1" parent="1" source="e1WzZySRsdqQACFZxS4t-170" target="e1WzZySRsdqQACFZxS4t-161">
          <mxGeometry width="50" height="50" relative="1" as="geometry">
            <mxPoint x="470" y="178.5" as="sourcePoint" />
            <mxPoint x="590" y="178.5" as="targetPoint" />
          </mxGeometry>
        </mxCell>
        <mxCell id="e1WzZySRsdqQACFZxS4t-182" value="" style="endArrow=none;html=1;entryX=0;entryY=1;entryDx=0;entryDy=0;exitX=1;exitY=0.5;exitDx=0;exitDy=0;strokeWidth=0.3;" edge="1" parent="1" source="e1WzZySRsdqQACFZxS4t-171" target="e1WzZySRsdqQACFZxS4t-160">
          <mxGeometry width="50" height="50" relative="1" as="geometry">
            <mxPoint x="480" y="188.5" as="sourcePoint" />
            <mxPoint x="600" y="188.5" as="targetPoint" />
          </mxGeometry>
        </mxCell>
        <mxCell id="e1WzZySRsdqQACFZxS4t-183" value="" style="endArrow=none;html=1;exitX=1;exitY=0.5;exitDx=0;exitDy=0;strokeWidth=0.3;" edge="1" parent="1" source="e1WzZySRsdqQACFZxS4t-170">
          <mxGeometry width="50" height="50" relative="1" as="geometry">
            <mxPoint x="470" y="168.5" as="sourcePoint" />
            <mxPoint x="580" y="278.5" as="targetPoint" />
          </mxGeometry>
        </mxCell>
        <mxCell id="e1WzZySRsdqQACFZxS4t-184" value="" style="endArrow=none;html=1;strokeWidth=0.3;" edge="1" parent="1">
          <mxGeometry width="50" height="50" relative="1" as="geometry">
            <mxPoint x="460" y="168.5" as="sourcePoint" />
            <mxPoint x="580" y="328.5" as="targetPoint" />
          </mxGeometry>
        </mxCell>
        <mxCell id="e1WzZySRsdqQACFZxS4t-185" value="" style="endArrow=none;html=1;exitX=1;exitY=0.5;exitDx=0;exitDy=0;strokeWidth=0.3;" edge="1" parent="1" source="e1WzZySRsdqQACFZxS4t-170">
          <mxGeometry width="50" height="50" relative="1" as="geometry">
            <mxPoint x="480" y="188.5" as="sourcePoint" />
            <mxPoint x="580" y="378.5" as="targetPoint" />
          </mxGeometry>
        </mxCell>
        <mxCell id="e1WzZySRsdqQACFZxS4t-186" value="" style="endArrow=none;html=1;entryX=0;entryY=0.5;entryDx=0;entryDy=0;strokeWidth=0.3;" edge="1" parent="1" target="e1WzZySRsdqQACFZxS4t-165">
          <mxGeometry width="50" height="50" relative="1" as="geometry">
            <mxPoint x="460" y="168.5" as="sourcePoint" />
            <mxPoint x="602.9289321881347" y="341.4289321881347" as="targetPoint" />
          </mxGeometry>
        </mxCell>
        <mxCell id="e1WzZySRsdqQACFZxS4t-187" value="" style="endArrow=none;html=1;entryX=0;entryY=0.5;entryDx=0;entryDy=0;strokeWidth=0.3;" edge="1" parent="1" target="e1WzZySRsdqQACFZxS4t-166">
          <mxGeometry width="50" height="50" relative="1" as="geometry">
            <mxPoint x="460" y="168.5" as="sourcePoint" />
            <mxPoint x="612.9289321881347" y="351.4289321881347" as="targetPoint" />
          </mxGeometry>
        </mxCell>
        <mxCell id="e1WzZySRsdqQACFZxS4t-188" value="" style="endArrow=none;html=1;entryX=0;entryY=0.5;entryDx=0;entryDy=0;strokeWidth=0.3;" edge="1" parent="1" target="e1WzZySRsdqQACFZxS4t-167">
          <mxGeometry width="50" height="50" relative="1" as="geometry">
            <mxPoint x="460" y="168.5" as="sourcePoint" />
            <mxPoint x="622.9289321881347" y="361.4289321881347" as="targetPoint" />
          </mxGeometry>
        </mxCell>
        <mxCell id="e1WzZySRsdqQACFZxS4t-189" value="" style="endArrow=none;html=1;strokeWidth=0.3;" edge="1" parent="1">
          <mxGeometry width="50" height="50" relative="1" as="geometry">
            <mxPoint x="460" y="168.5" as="sourcePoint" />
            <mxPoint x="580" y="588.5" as="targetPoint" />
          </mxGeometry>
        </mxCell>
        <mxCell id="e1WzZySRsdqQACFZxS4t-190" value="" style="endArrow=none;html=1;entryX=0;entryY=0.5;entryDx=0;entryDy=0;strokeWidth=0.3;" edge="1" parent="1" target="e1WzZySRsdqQACFZxS4t-169">
          <mxGeometry width="50" height="50" relative="1" as="geometry">
            <mxPoint x="460" y="168.5" as="sourcePoint" />
            <mxPoint x="642.9289321881347" y="381.4289321881347" as="targetPoint" />
          </mxGeometry>
        </mxCell>
        <mxCell id="e1WzZySRsdqQACFZxS4t-191" value="" style="endArrow=none;html=1;entryX=0;entryY=1;entryDx=0;entryDy=0;exitX=1;exitY=0.5;exitDx=0;exitDy=0;strokeWidth=0.3;" edge="1" parent="1" source="e1WzZySRsdqQACFZxS4t-171" target="e1WzZySRsdqQACFZxS4t-161">
          <mxGeometry width="50" height="50" relative="1" as="geometry">
            <mxPoint x="540" y="248.5" as="sourcePoint" />
            <mxPoint x="652.9289321881347" y="391.4289321881347" as="targetPoint" />
          </mxGeometry>
        </mxCell>
        <mxCell id="e1WzZySRsdqQACFZxS4t-192" value="" style="endArrow=none;html=1;exitX=1;exitY=0.5;exitDx=0;exitDy=0;strokeWidth=0.3;" edge="1" parent="1" source="e1WzZySRsdqQACFZxS4t-171">
          <mxGeometry width="50" height="50" relative="1" as="geometry">
            <mxPoint x="550" y="258.5" as="sourcePoint" />
            <mxPoint x="580" y="328.5" as="targetPoint" />
          </mxGeometry>
        </mxCell>
        <mxCell id="e1WzZySRsdqQACFZxS4t-193" value="" style="endArrow=none;html=1;strokeWidth=0.3;" edge="1" parent="1">
          <mxGeometry width="50" height="50" relative="1" as="geometry">
            <mxPoint x="460" y="218.5" as="sourcePoint" />
            <mxPoint x="580" y="378.5" as="targetPoint" />
          </mxGeometry>
        </mxCell>
        <mxCell id="e1WzZySRsdqQACFZxS4t-194" value="" style="endArrow=none;html=1;strokeWidth=0.3;" edge="1" parent="1">
          <mxGeometry width="50" height="50" relative="1" as="geometry">
            <mxPoint x="460" y="218.5" as="sourcePoint" />
            <mxPoint x="580" y="428.5" as="targetPoint" />
          </mxGeometry>
        </mxCell>
        <mxCell id="e1WzZySRsdqQACFZxS4t-195" value="" style="endArrow=none;html=1;entryX=0;entryY=0.5;entryDx=0;entryDy=0;strokeWidth=0.3;" edge="1" parent="1" target="e1WzZySRsdqQACFZxS4t-166">
          <mxGeometry width="50" height="50" relative="1" as="geometry">
            <mxPoint x="460" y="218.5" as="sourcePoint" />
            <mxPoint x="692.9289321881347" y="431.4289321881347" as="targetPoint" />
          </mxGeometry>
        </mxCell>
        <mxCell id="e1WzZySRsdqQACFZxS4t-196" value="" style="endArrow=none;html=1;strokeWidth=0.3;" edge="1" parent="1">
          <mxGeometry width="50" height="50" relative="1" as="geometry">
            <mxPoint x="460" y="218.5" as="sourcePoint" />
            <mxPoint x="580" y="538.5" as="targetPoint" />
          </mxGeometry>
        </mxCell>
        <mxCell id="e1WzZySRsdqQACFZxS4t-197" value="" style="endArrow=none;html=1;strokeWidth=0.3;" edge="1" parent="1">
          <mxGeometry width="50" height="50" relative="1" as="geometry">
            <mxPoint x="460" y="218.5" as="sourcePoint" />
            <mxPoint x="580" y="588.5" as="targetPoint" />
          </mxGeometry>
        </mxCell>
        <mxCell id="e1WzZySRsdqQACFZxS4t-198" value="" style="endArrow=none;html=1;exitX=1;exitY=0.5;exitDx=0;exitDy=0;strokeWidth=0.3;" edge="1" parent="1" source="e1WzZySRsdqQACFZxS4t-171">
          <mxGeometry width="50" height="50" relative="1" as="geometry">
            <mxPoint x="610" y="318.5" as="sourcePoint" />
            <mxPoint x="580" y="638.5" as="targetPoint" />
          </mxGeometry>
        </mxCell>
        <mxCell id="e1WzZySRsdqQACFZxS4t-199" value="" style="endArrow=none;html=1;entryX=0;entryY=0.5;entryDx=0;entryDy=0;strokeWidth=0.3;" edge="1" parent="1">
          <mxGeometry width="50" height="50" relative="1" as="geometry">
            <mxPoint x="460" y="277.5" as="sourcePoint" />
            <mxPoint x="580" y="277.5" as="targetPoint" />
          </mxGeometry>
        </mxCell>
        <mxCell id="e1WzZySRsdqQACFZxS4t-200" value="" style="endArrow=none;html=1;entryX=0;entryY=0.5;entryDx=0;entryDy=0;strokeWidth=0.3;" edge="1" parent="1">
          <mxGeometry width="50" height="50" relative="1" as="geometry">
            <mxPoint x="460" y="328" as="sourcePoint" />
            <mxPoint x="580" y="328" as="targetPoint" />
          </mxGeometry>
        </mxCell>
        <mxCell id="e1WzZySRsdqQACFZxS4t-201" value="" style="endArrow=none;html=1;entryX=0;entryY=0.5;entryDx=0;entryDy=0;strokeWidth=0.3;" edge="1" parent="1">
          <mxGeometry width="50" height="50" relative="1" as="geometry">
            <mxPoint x="460" y="378" as="sourcePoint" />
            <mxPoint x="580" y="378" as="targetPoint" />
          </mxGeometry>
        </mxCell>
        <mxCell id="e1WzZySRsdqQACFZxS4t-202" value="" style="endArrow=none;html=1;entryX=0;entryY=0.5;entryDx=0;entryDy=0;strokeWidth=0.3;" edge="1" parent="1">
          <mxGeometry width="50" height="50" relative="1" as="geometry">
            <mxPoint x="460" y="428" as="sourcePoint" />
            <mxPoint x="580" y="428" as="targetPoint" />
          </mxGeometry>
        </mxCell>
        <mxCell id="e1WzZySRsdqQACFZxS4t-203" value="" style="endArrow=none;html=1;entryX=0;entryY=0.5;entryDx=0;entryDy=0;strokeWidth=0.3;" edge="1" parent="1">
          <mxGeometry width="50" height="50" relative="1" as="geometry">
            <mxPoint x="460" y="478" as="sourcePoint" />
            <mxPoint x="580" y="478" as="targetPoint" />
          </mxGeometry>
        </mxCell>
        <mxCell id="e1WzZySRsdqQACFZxS4t-204" value="" style="endArrow=none;html=1;entryX=0;entryY=0.5;entryDx=0;entryDy=0;strokeWidth=0.3;" edge="1" parent="1">
          <mxGeometry width="50" height="50" relative="1" as="geometry">
            <mxPoint x="460" y="538" as="sourcePoint" />
            <mxPoint x="580" y="538" as="targetPoint" />
          </mxGeometry>
        </mxCell>
        <mxCell id="e1WzZySRsdqQACFZxS4t-205" value="" style="endArrow=none;html=1;entryX=0;entryY=0.5;entryDx=0;entryDy=0;strokeWidth=0.3;" edge="1" parent="1">
          <mxGeometry width="50" height="50" relative="1" as="geometry">
            <mxPoint x="460" y="588" as="sourcePoint" />
            <mxPoint x="580" y="588" as="targetPoint" />
          </mxGeometry>
        </mxCell>
        <mxCell id="e1WzZySRsdqQACFZxS4t-206" value="" style="endArrow=none;html=1;entryX=0;entryY=0.5;entryDx=0;entryDy=0;strokeWidth=0.3;" edge="1" parent="1">
          <mxGeometry width="50" height="50" relative="1" as="geometry">
            <mxPoint x="460" y="638" as="sourcePoint" />
            <mxPoint x="580" y="638" as="targetPoint" />
          </mxGeometry>
        </mxCell>
        <mxCell id="e1WzZySRsdqQACFZxS4t-207" value="" style="endArrow=none;html=1;exitX=1;exitY=0.5;exitDx=0;exitDy=0;strokeWidth=0.3;" edge="1" parent="1" source="e1WzZySRsdqQACFZxS4t-173">
          <mxGeometry width="50" height="50" relative="1" as="geometry">
            <mxPoint x="470" y="338" as="sourcePoint" />
            <mxPoint x="580" y="378.5" as="targetPoint" />
          </mxGeometry>
        </mxCell>
        <mxCell id="e1WzZySRsdqQACFZxS4t-208" value="" style="endArrow=none;html=1;entryX=0;entryY=0.5;entryDx=0;entryDy=0;strokeWidth=0.3;" edge="1" parent="1" target="e1WzZySRsdqQACFZxS4t-162">
          <mxGeometry width="50" height="50" relative="1" as="geometry">
            <mxPoint x="460" y="328.5" as="sourcePoint" />
            <mxPoint x="600" y="348" as="targetPoint" />
          </mxGeometry>
        </mxCell>
        <mxCell id="e1WzZySRsdqQACFZxS4t-209" value="" style="endArrow=none;html=1;entryX=0;entryY=1;entryDx=0;entryDy=0;strokeWidth=0.3;" edge="1" parent="1" target="e1WzZySRsdqQACFZxS4t-161">
          <mxGeometry width="50" height="50" relative="1" as="geometry">
            <mxPoint x="460" y="278.5" as="sourcePoint" />
            <mxPoint x="580" y="228.5" as="targetPoint" />
          </mxGeometry>
        </mxCell>
        <mxCell id="e1WzZySRsdqQACFZxS4t-210" value="" style="endArrow=none;html=1;exitX=0;exitY=0.5;exitDx=0;exitDy=0;entryX=1;entryY=0.5;entryDx=0;entryDy=0;strokeWidth=0.3;" edge="1" parent="1" source="e1WzZySRsdqQACFZxS4t-164" target="e1WzZySRsdqQACFZxS4t-175">
          <mxGeometry width="50" height="50" relative="1" as="geometry">
            <mxPoint x="450" y="128.5" as="sourcePoint" />
            <mxPoint x="290" y="428.5" as="targetPoint" />
          </mxGeometry>
        </mxCell>
        <mxCell id="e1WzZySRsdqQACFZxS4t-211" value="" style="endArrow=none;html=1;entryX=0;entryY=0.5;entryDx=0;entryDy=0;exitX=1;exitY=0.5;exitDx=0;exitDy=0;strokeWidth=0.3;" edge="1" parent="1" source="e1WzZySRsdqQACFZxS4t-174" target="e1WzZySRsdqQACFZxS4t-163">
          <mxGeometry width="50" height="50" relative="1" as="geometry">
            <mxPoint x="510" y="378" as="sourcePoint" />
            <mxPoint x="630" y="378" as="targetPoint" />
          </mxGeometry>
        </mxCell>
        <mxCell id="e1WzZySRsdqQACFZxS4t-212" value="" style="endArrow=none;html=1;exitX=1;exitY=0.5;exitDx=0;exitDy=0;strokeWidth=0.3;" edge="1" parent="1" source="e1WzZySRsdqQACFZxS4t-175">
          <mxGeometry width="50" height="50" relative="1" as="geometry">
            <mxPoint x="520" y="388" as="sourcePoint" />
            <mxPoint x="580" y="478.5" as="targetPoint" />
          </mxGeometry>
        </mxCell>
        <mxCell id="e1WzZySRsdqQACFZxS4t-213" value="" style="endArrow=none;html=1;entryX=1;entryY=0.5;entryDx=0;entryDy=0;strokeWidth=0.3;" edge="1" parent="1" target="e1WzZySRsdqQACFZxS4t-176">
          <mxGeometry width="50" height="50" relative="1" as="geometry">
            <mxPoint x="580" y="588.5" as="sourcePoint" />
            <mxPoint x="500" y="508.5" as="targetPoint" />
          </mxGeometry>
        </mxCell>
        <mxCell id="e1WzZySRsdqQACFZxS4t-214" value="" style="endArrow=none;html=1;entryX=0;entryY=0.5;entryDx=0;entryDy=0;strokeWidth=0.3;" edge="1" parent="1" target="e1WzZySRsdqQACFZxS4t-166">
          <mxGeometry width="50" height="50" relative="1" as="geometry">
            <mxPoint x="460" y="538.5" as="sourcePoint" />
            <mxPoint x="570" y="508" as="targetPoint" />
          </mxGeometry>
        </mxCell>
        <mxCell id="e1WzZySRsdqQACFZxS4t-215" value="" style="endArrow=none;html=1;entryX=1;entryY=0.5;entryDx=0;entryDy=0;exitX=0;exitY=0.5;exitDx=0;exitDy=0;strokeWidth=0.3;" edge="1" parent="1" source="e1WzZySRsdqQACFZxS4t-165" target="e1WzZySRsdqQACFZxS4t-178">
          <mxGeometry width="50" height="50" relative="1" as="geometry">
            <mxPoint x="550" y="418" as="sourcePoint" />
            <mxPoint x="670" y="418" as="targetPoint" />
          </mxGeometry>
        </mxCell>
        <mxCell id="e1WzZySRsdqQACFZxS4t-216" value="" style="endArrow=none;html=1;exitX=1;exitY=0.5;exitDx=0;exitDy=0;strokeWidth=0.3;" edge="1" parent="1" source="e1WzZySRsdqQACFZxS4t-179">
          <mxGeometry width="50" height="50" relative="1" as="geometry">
            <mxPoint x="560" y="428" as="sourcePoint" />
            <mxPoint x="580" y="428.5" as="targetPoint" />
          </mxGeometry>
        </mxCell>
        <mxCell id="e1WzZySRsdqQACFZxS4t-217" value="" style="endArrow=none;html=1;strokeWidth=0.3;" edge="1" parent="1">
          <mxGeometry width="50" height="50" relative="1" as="geometry">
            <mxPoint x="460" y="638.5" as="sourcePoint" />
            <mxPoint x="580" y="538.5" as="targetPoint" />
          </mxGeometry>
        </mxCell>
        <mxCell id="e1WzZySRsdqQACFZxS4t-218" value="" style="endArrow=none;html=1;entryX=0;entryY=0.5;entryDx=0;entryDy=0;exitX=1;exitY=0.5;exitDx=0;exitDy=0;strokeWidth=0.3;" edge="1" parent="1" source="e1WzZySRsdqQACFZxS4t-179" target="e1WzZySRsdqQACFZxS4t-168">
          <mxGeometry width="50" height="50" relative="1" as="geometry">
            <mxPoint x="457" y="638.5" as="sourcePoint" />
            <mxPoint x="700" y="448" as="targetPoint" />
          </mxGeometry>
        </mxCell>
        <mxCell id="e1WzZySRsdqQACFZxS4t-219" value="" style="endArrow=none;html=1;entryX=0;entryY=0.5;entryDx=0;entryDy=0;strokeWidth=0.3;" edge="1" parent="1" target="e1WzZySRsdqQACFZxS4t-165">
          <mxGeometry width="50" height="50" relative="1" as="geometry">
            <mxPoint x="460" y="478.5" as="sourcePoint" />
            <mxPoint x="710" y="458" as="targetPoint" />
          </mxGeometry>
        </mxCell>
        <mxCell id="e1WzZySRsdqQACFZxS4t-220" value="" style="endArrow=none;html=1;exitX=1;exitY=0.5;exitDx=0;exitDy=0;strokeWidth=0.3;" edge="1" parent="1" source="e1WzZySRsdqQACFZxS4t-175">
          <mxGeometry width="50" height="50" relative="1" as="geometry">
            <mxPoint x="470" y="428.5" as="sourcePoint" />
            <mxPoint x="580" y="328.5" as="targetPoint" />
          </mxGeometry>
        </mxCell>
        <mxCell id="e1WzZySRsdqQACFZxS4t-221" value="" style="endArrow=none;html=1;entryX=0;entryY=0.5;entryDx=0;entryDy=0;strokeWidth=0.3;" edge="1" parent="1" target="e1WzZySRsdqQACFZxS4t-165">
          <mxGeometry width="50" height="50" relative="1" as="geometry">
            <mxPoint x="460" y="378.5" as="sourcePoint" />
            <mxPoint x="580" y="387.5" as="targetPoint" />
          </mxGeometry>
        </mxCell>
        <mxCell id="e1WzZySRsdqQACFZxS4t-222" value="" style="endArrow=none;html=1;entryX=0;entryY=0.5;entryDx=0;entryDy=0;strokeWidth=0.3;" edge="1" parent="1" target="e1WzZySRsdqQACFZxS4t-168">
          <mxGeometry width="50" height="50" relative="1" as="geometry">
            <mxPoint x="460" y="538.5" as="sourcePoint" />
            <mxPoint x="570" y="558.5" as="targetPoint" />
          </mxGeometry>
        </mxCell>
        <mxCell id="e1WzZySRsdqQACFZxS4t-223" value="" style="endArrow=none;html=1;exitX=1;exitY=0.5;exitDx=0;exitDy=0;strokeWidth=0.3;" edge="1" parent="1" source="e1WzZySRsdqQACFZxS4t-175">
          <mxGeometry width="50" height="50" relative="1" as="geometry">
            <mxPoint x="300" y="417.5" as="sourcePoint" />
            <mxPoint x="580" y="278.5" as="targetPoint" />
          </mxGeometry>
        </mxCell>
        <mxCell id="e1WzZySRsdqQACFZxS4t-224" value="" style="endArrow=none;html=1;strokeWidth=0.3;" edge="1" parent="1">
          <mxGeometry width="50" height="50" relative="1" as="geometry">
            <mxPoint x="460" y="538.5" as="sourcePoint" />
            <mxPoint x="580" y="428.5" as="targetPoint" />
          </mxGeometry>
        </mxCell>
        <mxCell id="e1WzZySRsdqQACFZxS4t-225" value="" style="endArrow=none;html=1;entryX=0;entryY=0.5;entryDx=0;entryDy=0;strokeWidth=0.3;" edge="1" parent="1" target="e1WzZySRsdqQACFZxS4t-164">
          <mxGeometry width="50" height="50" relative="1" as="geometry">
            <mxPoint x="460" y="638" as="sourcePoint" />
            <mxPoint x="580" y="638" as="targetPoint" />
          </mxGeometry>
        </mxCell>
        <mxCell id="e1WzZySRsdqQACFZxS4t-226" value="" style="endArrow=none;html=1;strokeWidth=0.3;" edge="1" parent="1">
          <mxGeometry width="50" height="50" relative="1" as="geometry">
            <mxPoint x="460" y="638" as="sourcePoint" />
            <mxPoint x="580" y="328.5" as="targetPoint" />
          </mxGeometry>
        </mxCell>
        <mxCell id="e1WzZySRsdqQACFZxS4t-227" value="" style="endArrow=none;html=1;entryX=0;entryY=0.5;entryDx=0;entryDy=0;strokeWidth=0.3;" edge="1" parent="1" target="e1WzZySRsdqQACFZxS4t-162">
          <mxGeometry width="50" height="50" relative="1" as="geometry">
            <mxPoint x="460" y="638" as="sourcePoint" />
            <mxPoint x="580" y="638" as="targetPoint" />
          </mxGeometry>
        </mxCell>
        <mxCell id="e1WzZySRsdqQACFZxS4t-228" value="" style="endArrow=none;html=1;strokeWidth=0.3;" edge="1" parent="1">
          <mxGeometry width="50" height="50" relative="1" as="geometry">
            <mxPoint x="460" y="638" as="sourcePoint" />
            <mxPoint x="580" y="218.5" as="targetPoint" />
          </mxGeometry>
        </mxCell>
        <mxCell id="e1WzZySRsdqQACFZxS4t-229" value="" style="endArrow=none;html=1;entryX=0;entryY=1;entryDx=0;entryDy=0;strokeWidth=0.3;" edge="1" parent="1" target="e1WzZySRsdqQACFZxS4t-160">
          <mxGeometry width="50" height="50" relative="1" as="geometry">
            <mxPoint x="460" y="638" as="sourcePoint" />
            <mxPoint x="580" y="638" as="targetPoint" />
          </mxGeometry>
        </mxCell>
        <mxCell id="e1WzZySRsdqQACFZxS4t-230" value="" style="endArrow=none;html=1;exitX=1;exitY=0.5;exitDx=0;exitDy=0;entryX=0;entryY=1;entryDx=0;entryDy=0;strokeWidth=0.3;" edge="1" parent="1" source="e1WzZySRsdqQACFZxS4t-172" target="e1WzZySRsdqQACFZxS4t-160">
          <mxGeometry width="50" height="50" relative="1" as="geometry">
            <mxPoint x="470" y="228.5" as="sourcePoint" />
            <mxPoint x="580" y="178.5" as="targetPoint" />
          </mxGeometry>
        </mxCell>
        <mxCell id="e1WzZySRsdqQACFZxS4t-231" value="" style="endArrow=none;html=1;exitX=1;exitY=0.5;exitDx=0;exitDy=0;strokeWidth=0.3;" edge="1" parent="1" source="e1WzZySRsdqQACFZxS4t-172">
          <mxGeometry width="50" height="50" relative="1" as="geometry">
            <mxPoint x="480" y="238.5" as="sourcePoint" />
            <mxPoint x="580" y="328.5" as="targetPoint" />
          </mxGeometry>
        </mxCell>
        <mxCell id="e1WzZySRsdqQACFZxS4t-232" value="" style="endArrow=none;html=1;exitX=1;exitY=0.5;exitDx=0;exitDy=0;strokeWidth=0.3;" edge="1" parent="1" source="e1WzZySRsdqQACFZxS4t-173">
          <mxGeometry width="50" height="50" relative="1" as="geometry">
            <mxPoint x="457.06999999999994" y="328.43" as="sourcePoint" />
            <mxPoint x="580" y="219" as="targetPoint" />
          </mxGeometry>
        </mxCell>
        <mxCell id="e1WzZySRsdqQACFZxS4t-233" value="" style="endArrow=none;html=1;exitX=1;exitY=0.5;exitDx=0;exitDy=0;strokeWidth=0.3;" edge="1" parent="1">
          <mxGeometry width="50" height="50" relative="1" as="geometry">
            <mxPoint x="460" y="328.43000000000006" as="sourcePoint" />
            <mxPoint x="583" y="168.5" as="targetPoint" />
          </mxGeometry>
        </mxCell>
        <mxCell id="e1WzZySRsdqQACFZxS4t-234" value="" style="endArrow=none;html=1;entryX=0;entryY=0.5;entryDx=0;entryDy=0;exitX=1;exitY=0.5;exitDx=0;exitDy=0;strokeWidth=0.3;" edge="1" parent="1" target="e1WzZySRsdqQACFZxS4t-165">
          <mxGeometry width="50" height="50" relative="1" as="geometry">
            <mxPoint x="460" y="328.43000000000006" as="sourcePoint" />
            <mxPoint x="582.9289321881347" y="278.5010678118653" as="targetPoint" />
          </mxGeometry>
        </mxCell>
        <mxCell id="e1WzZySRsdqQACFZxS4t-235" value="" style="endArrow=none;html=1;exitX=1;exitY=0.5;exitDx=0;exitDy=0;strokeWidth=0.3;" edge="1" parent="1" source="e1WzZySRsdqQACFZxS4t-172">
          <mxGeometry width="50" height="50" relative="1" as="geometry">
            <mxPoint x="457.06999999999994" y="308.43" as="sourcePoint" />
            <mxPoint x="580" y="378.5" as="targetPoint" />
          </mxGeometry>
        </mxCell>
        <mxCell id="e1WzZySRsdqQACFZxS4t-236" value="" style="endArrow=none;html=1;entryX=0;entryY=0.5;entryDx=0;entryDy=0;exitX=1;exitY=0.5;exitDx=0;exitDy=0;strokeWidth=0.3;" edge="1" parent="1" target="e1WzZySRsdqQACFZxS4t-165">
          <mxGeometry width="50" height="50" relative="1" as="geometry">
            <mxPoint x="460" y="278.5" as="sourcePoint" />
            <mxPoint x="582.9289321881347" y="228.5710678118653" as="targetPoint" />
          </mxGeometry>
        </mxCell>
        <mxCell id="e1WzZySRsdqQACFZxS4t-237" value="" style="endArrow=none;html=1;strokeWidth=0.3;" edge="1" parent="1">
          <mxGeometry width="50" height="50" relative="1" as="geometry">
            <mxPoint x="460" y="278.5" as="sourcePoint" />
            <mxPoint x="580" y="478.5" as="targetPoint" />
          </mxGeometry>
        </mxCell>
        <mxCell id="e1WzZySRsdqQACFZxS4t-238" value="" style="endArrow=none;html=1;strokeWidth=0.3;" edge="1" parent="1">
          <mxGeometry width="50" height="50" relative="1" as="geometry">
            <mxPoint x="460" y="278.5" as="sourcePoint" />
            <mxPoint x="580" y="538.5" as="targetPoint" />
          </mxGeometry>
        </mxCell>
        <mxCell id="e1WzZySRsdqQACFZxS4t-239" value="" style="endArrow=none;html=1;entryX=0;entryY=0.5;entryDx=0;entryDy=0;exitX=1;exitY=0.5;exitDx=0;exitDy=0;strokeWidth=0.3;" edge="1" parent="1" target="e1WzZySRsdqQACFZxS4t-168">
          <mxGeometry width="50" height="50" relative="1" as="geometry">
            <mxPoint x="460" y="278.5" as="sourcePoint" />
            <mxPoint x="582.9289321881347" y="228.5710678118653" as="targetPoint" />
          </mxGeometry>
        </mxCell>
        <mxCell id="e1WzZySRsdqQACFZxS4t-240" value="" style="endArrow=none;html=1;entryX=0;entryY=0.5;entryDx=0;entryDy=0;exitX=1;exitY=0.5;exitDx=0;exitDy=0;strokeWidth=0.3;" edge="1" parent="1" target="e1WzZySRsdqQACFZxS4t-168">
          <mxGeometry width="50" height="50" relative="1" as="geometry">
            <mxPoint x="460" y="278.5" as="sourcePoint" />
            <mxPoint x="582.9289321881347" y="228.5710678118653" as="targetPoint" />
          </mxGeometry>
        </mxCell>
        <mxCell id="e1WzZySRsdqQACFZxS4t-241" value="" style="endArrow=none;html=1;entryX=0;entryY=0.5;entryDx=0;entryDy=0;exitX=1;exitY=0.5;exitDx=0;exitDy=0;strokeWidth=0.3;" edge="1" parent="1" target="e1WzZySRsdqQACFZxS4t-169">
          <mxGeometry width="50" height="50" relative="1" as="geometry">
            <mxPoint x="460" y="278.5" as="sourcePoint" />
            <mxPoint x="582.9289321881347" y="228.5710678118653" as="targetPoint" />
          </mxGeometry>
        </mxCell>
        <mxCell id="e1WzZySRsdqQACFZxS4t-242" value="" style="endArrow=none;html=1;exitX=1;exitY=0.5;exitDx=0;exitDy=0;strokeWidth=0.3;" edge="1" parent="1">
          <mxGeometry width="50" height="50" relative="1" as="geometry">
            <mxPoint x="460" y="328.43000000000006" as="sourcePoint" />
            <mxPoint x="580" y="638.5" as="targetPoint" />
          </mxGeometry>
        </mxCell>
        <mxCell id="e1WzZySRsdqQACFZxS4t-243" value="" style="endArrow=none;html=1;exitX=1;exitY=0.5;exitDx=0;exitDy=0;strokeWidth=0.3;" edge="1" parent="1">
          <mxGeometry width="50" height="50" relative="1" as="geometry">
            <mxPoint x="460" y="378.43000000000006" as="sourcePoint" />
            <mxPoint x="580" y="278.5" as="targetPoint" />
          </mxGeometry>
        </mxCell>
        <mxCell id="e1WzZySRsdqQACFZxS4t-244" value="" style="endArrow=none;html=1;strokeWidth=0.3;" edge="1" parent="1">
          <mxGeometry width="50" height="50" relative="1" as="geometry">
            <mxPoint x="460" y="428.5" as="sourcePoint" />
            <mxPoint x="580" y="588.5" as="targetPoint" />
          </mxGeometry>
        </mxCell>
        <mxCell id="e1WzZySRsdqQACFZxS4t-245" value="" style="endArrow=none;html=1;strokeWidth=0.3;" edge="1" parent="1">
          <mxGeometry width="50" height="50" relative="1" as="geometry">
            <mxPoint x="460" y="378.5" as="sourcePoint" />
            <mxPoint x="580" y="538.5" as="targetPoint" />
          </mxGeometry>
        </mxCell>
        <mxCell id="e1WzZySRsdqQACFZxS4t-246" value="" style="endArrow=none;html=1;entryX=0;entryY=0.5;entryDx=0;entryDy=0;strokeWidth=0.3;" edge="1" parent="1" target="e1WzZySRsdqQACFZxS4t-169">
          <mxGeometry width="50" height="50" relative="1" as="geometry">
            <mxPoint x="460" y="378.5" as="sourcePoint" />
            <mxPoint x="582.9289321881347" y="338.5010678118653" as="targetPoint" />
          </mxGeometry>
        </mxCell>
        <mxCell id="e1WzZySRsdqQACFZxS4t-247" value="" style="endArrow=none;html=1;entryX=0;entryY=0.5;entryDx=0;entryDy=0;exitX=1;exitY=0.5;exitDx=0;exitDy=0;strokeWidth=0.3;" edge="1" parent="1" target="e1WzZySRsdqQACFZxS4t-169">
          <mxGeometry width="50" height="50" relative="1" as="geometry">
            <mxPoint x="460" y="428.43000000000006" as="sourcePoint" />
            <mxPoint x="582.9289321881347" y="378.5010678118653" as="targetPoint" />
          </mxGeometry>
        </mxCell>
        <mxCell id="e1WzZySRsdqQACFZxS4t-248" value="" style="endArrow=none;html=1;entryX=0;entryY=0.5;entryDx=0;entryDy=0;strokeWidth=0.3;" edge="1" parent="1" target="e1WzZySRsdqQACFZxS4t-164">
          <mxGeometry width="50" height="50" relative="1" as="geometry">
            <mxPoint x="460" y="478.5" as="sourcePoint" />
            <mxPoint x="580" y="388.5" as="targetPoint" />
          </mxGeometry>
        </mxCell>
        <mxCell id="e1WzZySRsdqQACFZxS4t-249" value="" style="endArrow=none;html=1;strokeWidth=0.3;" edge="1" parent="1">
          <mxGeometry width="50" height="50" relative="1" as="geometry">
            <mxPoint x="460" y="478.5" as="sourcePoint" />
            <mxPoint x="580" y="328.5" as="targetPoint" />
          </mxGeometry>
        </mxCell>
        <mxCell id="e1WzZySRsdqQACFZxS4t-250" value="" style="endArrow=none;html=1;entryX=0;entryY=0.5;entryDx=0;entryDy=0;exitX=1;exitY=0.5;exitDx=0;exitDy=0;strokeWidth=0.3;" edge="1" parent="1" target="e1WzZySRsdqQACFZxS4t-162">
          <mxGeometry width="50" height="50" relative="1" as="geometry">
            <mxPoint x="460" y="478.43000000000006" as="sourcePoint" />
            <mxPoint x="582.9289321881347" y="428.5010678118653" as="targetPoint" />
          </mxGeometry>
        </mxCell>
        <mxCell id="e1WzZySRsdqQACFZxS4t-251" value="" style="endArrow=none;html=1;exitX=1;exitY=0.5;exitDx=0;exitDy=0;strokeWidth=0.3;" edge="1" parent="1">
          <mxGeometry width="50" height="50" relative="1" as="geometry">
            <mxPoint x="460" y="478.43000000000006" as="sourcePoint" />
            <mxPoint x="583" y="168.5" as="targetPoint" />
          </mxGeometry>
        </mxCell>
        <mxCell id="e1WzZySRsdqQACFZxS4t-252" value="" style="endArrow=none;html=1;exitX=1;exitY=0.5;exitDx=0;exitDy=0;strokeWidth=0.3;" edge="1" parent="1">
          <mxGeometry width="50" height="50" relative="1" as="geometry">
            <mxPoint x="460" y="538.4300000000001" as="sourcePoint" />
            <mxPoint x="580" y="378.5" as="targetPoint" />
          </mxGeometry>
        </mxCell>
        <mxCell id="e1WzZySRsdqQACFZxS4t-253" value="" style="endArrow=none;html=1;entryX=0;entryY=0.5;entryDx=0;entryDy=0;exitX=1;exitY=0.5;exitDx=0;exitDy=0;strokeWidth=0.3;" edge="1" parent="1" target="e1WzZySRsdqQACFZxS4t-169">
          <mxGeometry width="50" height="50" relative="1" as="geometry">
            <mxPoint x="460" y="538.4300000000001" as="sourcePoint" />
            <mxPoint x="582.9289321881347" y="488.5010678118653" as="targetPoint" />
          </mxGeometry>
        </mxCell>
        <mxCell id="e1WzZySRsdqQACFZxS4t-254" value="" style="endArrow=none;html=1;exitX=1;exitY=0.5;exitDx=0;exitDy=0;strokeWidth=0.3;" edge="1" parent="1">
          <mxGeometry width="50" height="50" relative="1" as="geometry">
            <mxPoint x="460" y="588.4300000000001" as="sourcePoint" />
            <mxPoint x="580" y="328.5" as="targetPoint" />
          </mxGeometry>
        </mxCell>
        <mxCell id="e1WzZySRsdqQACFZxS4t-255" value="" style="endArrow=none;html=1;entryX=0;entryY=0.5;entryDx=0;entryDy=0;exitX=1;exitY=0.5;exitDx=0;exitDy=0;strokeWidth=0.3;" edge="1" parent="1" target="e1WzZySRsdqQACFZxS4t-169">
          <mxGeometry width="50" height="50" relative="1" as="geometry">
            <mxPoint x="460" y="588.4300000000001" as="sourcePoint" />
            <mxPoint x="582.9289321881347" y="538.5010678118654" as="targetPoint" />
          </mxGeometry>
        </mxCell>
        <mxCell id="e1WzZySRsdqQACFZxS4t-256" value="" style="endArrow=none;html=1;exitX=1;exitY=0.5;exitDx=0;exitDy=0;strokeWidth=0.3;" edge="1" parent="1">
          <mxGeometry width="50" height="50" relative="1" as="geometry">
            <mxPoint x="460" y="588.4300000000001" as="sourcePoint" />
            <mxPoint x="580" y="539" as="targetPoint" />
          </mxGeometry>
        </mxCell>
        <mxCell id="e1WzZySRsdqQACFZxS4t-257" value="" style="endArrow=none;html=1;exitX=1;exitY=0.5;exitDx=0;exitDy=0;strokeWidth=0.3;" edge="1" parent="1">
          <mxGeometry width="50" height="50" relative="1" as="geometry">
            <mxPoint x="461" y="589.4300000000001" as="sourcePoint" />
            <mxPoint x="581" y="169.5" as="targetPoint" />
          </mxGeometry>
        </mxCell>
        <mxCell id="e1WzZySRsdqQACFZxS4t-258" value="" style="endArrow=none;html=1;exitX=1;exitY=0.5;exitDx=0;exitDy=0;strokeWidth=0.3;" edge="1" parent="1">
          <mxGeometry width="50" height="50" relative="1" as="geometry">
            <mxPoint x="460" y="538.4299999999998" as="sourcePoint" />
            <mxPoint x="580" y="328.5" as="targetPoint" />
          </mxGeometry>
        </mxCell>
        <mxCell id="e1WzZySRsdqQACFZxS4t-259" value="" style="endArrow=none;html=1;exitX=1;exitY=0.5;exitDx=0;exitDy=0;strokeWidth=0.3;" edge="1" parent="1">
          <mxGeometry width="50" height="50" relative="1" as="geometry">
            <mxPoint x="460" y="538.4299999999998" as="sourcePoint" />
            <mxPoint x="580" y="278.5" as="targetPoint" />
          </mxGeometry>
        </mxCell>
        <mxCell id="e1WzZySRsdqQACFZxS4t-260" value="" style="endArrow=none;html=1;exitX=1;exitY=0.5;exitDx=0;exitDy=0;strokeWidth=0.3;" edge="1" parent="1">
          <mxGeometry width="50" height="50" relative="1" as="geometry">
            <mxPoint x="460" y="538.4299999999998" as="sourcePoint" />
            <mxPoint x="580" y="219" as="targetPoint" />
          </mxGeometry>
        </mxCell>
        <mxCell id="e1WzZySRsdqQACFZxS4t-382" value="" style="endArrow=none;html=1;entryX=0;entryY=1;entryDx=0;entryDy=0;strokeWidth=0.3;" edge="1" parent="1">
          <mxGeometry width="50" height="50" relative="1" as="geometry">
            <mxPoint x="320" y="171.5" as="sourcePoint" />
            <mxPoint x="442.9289321881347" y="171.5710678118653" as="targetPoint" />
          </mxGeometry>
        </mxCell>
        <mxCell id="e1WzZySRsdqQACFZxS4t-383" value="" style="endArrow=none;html=1;exitX=1;exitY=0.5;exitDx=0;exitDy=0;strokeWidth=0.3;" edge="1" parent="1">
          <mxGeometry width="50" height="50" relative="1" as="geometry">
            <mxPoint x="320" y="171.5" as="sourcePoint" />
            <mxPoint x="440" y="223" as="targetPoint" />
          </mxGeometry>
        </mxCell>
        <mxCell id="e1WzZySRsdqQACFZxS4t-384" value="" style="endArrow=none;html=1;entryX=0;entryY=1;entryDx=0;entryDy=0;exitX=1;exitY=0.5;exitDx=0;exitDy=0;strokeWidth=0.3;" edge="1" parent="1">
          <mxGeometry width="50" height="50" relative="1" as="geometry">
            <mxPoint x="320" y="221.5" as="sourcePoint" />
            <mxPoint x="442.9289321881347" y="171.5710678118653" as="targetPoint" />
          </mxGeometry>
        </mxCell>
        <mxCell id="e1WzZySRsdqQACFZxS4t-385" value="" style="endArrow=none;html=1;exitX=1;exitY=0.5;exitDx=0;exitDy=0;strokeWidth=0.3;" edge="1" parent="1">
          <mxGeometry width="50" height="50" relative="1" as="geometry">
            <mxPoint x="320" y="171.5" as="sourcePoint" />
            <mxPoint x="440" y="281.5" as="targetPoint" />
          </mxGeometry>
        </mxCell>
        <mxCell id="e1WzZySRsdqQACFZxS4t-386" value="" style="endArrow=none;html=1;strokeWidth=0.3;" edge="1" parent="1">
          <mxGeometry width="50" height="50" relative="1" as="geometry">
            <mxPoint x="320" y="171.5" as="sourcePoint" />
            <mxPoint x="440" y="331.5" as="targetPoint" />
          </mxGeometry>
        </mxCell>
        <mxCell id="e1WzZySRsdqQACFZxS4t-387" value="" style="endArrow=none;html=1;exitX=1;exitY=0.5;exitDx=0;exitDy=0;strokeWidth=0.3;" edge="1" parent="1">
          <mxGeometry width="50" height="50" relative="1" as="geometry">
            <mxPoint x="320" y="171.5" as="sourcePoint" />
            <mxPoint x="440" y="381.5" as="targetPoint" />
          </mxGeometry>
        </mxCell>
        <mxCell id="e1WzZySRsdqQACFZxS4t-388" value="" style="endArrow=none;html=1;entryX=0;entryY=0.5;entryDx=0;entryDy=0;strokeWidth=0.3;" edge="1" parent="1">
          <mxGeometry width="50" height="50" relative="1" as="geometry">
            <mxPoint x="320" y="171.5" as="sourcePoint" />
            <mxPoint x="440" y="431.5" as="targetPoint" />
          </mxGeometry>
        </mxCell>
        <mxCell id="e1WzZySRsdqQACFZxS4t-389" value="" style="endArrow=none;html=1;entryX=0;entryY=0.5;entryDx=0;entryDy=0;strokeWidth=0.3;" edge="1" parent="1">
          <mxGeometry width="50" height="50" relative="1" as="geometry">
            <mxPoint x="320" y="171.5" as="sourcePoint" />
            <mxPoint x="440" y="481.5" as="targetPoint" />
          </mxGeometry>
        </mxCell>
        <mxCell id="e1WzZySRsdqQACFZxS4t-390" value="" style="endArrow=none;html=1;entryX=0;entryY=0.5;entryDx=0;entryDy=0;strokeWidth=0.3;" edge="1" parent="1">
          <mxGeometry width="50" height="50" relative="1" as="geometry">
            <mxPoint x="320" y="171.5" as="sourcePoint" />
            <mxPoint x="440" y="541.5" as="targetPoint" />
          </mxGeometry>
        </mxCell>
        <mxCell id="e1WzZySRsdqQACFZxS4t-391" value="" style="endArrow=none;html=1;strokeWidth=0.3;" edge="1" parent="1">
          <mxGeometry width="50" height="50" relative="1" as="geometry">
            <mxPoint x="320" y="171.5" as="sourcePoint" />
            <mxPoint x="440" y="591.5" as="targetPoint" />
          </mxGeometry>
        </mxCell>
        <mxCell id="e1WzZySRsdqQACFZxS4t-392" value="" style="endArrow=none;html=1;entryX=0;entryY=0.5;entryDx=0;entryDy=0;strokeWidth=0.3;" edge="1" parent="1">
          <mxGeometry width="50" height="50" relative="1" as="geometry">
            <mxPoint x="320" y="171.5" as="sourcePoint" />
            <mxPoint x="440" y="641.5" as="targetPoint" />
          </mxGeometry>
        </mxCell>
        <mxCell id="e1WzZySRsdqQACFZxS4t-393" value="" style="endArrow=none;html=1;exitX=1;exitY=0.5;exitDx=0;exitDy=0;strokeWidth=0.3;" edge="1" parent="1">
          <mxGeometry width="50" height="50" relative="1" as="geometry">
            <mxPoint x="320" y="221.5" as="sourcePoint" />
            <mxPoint x="440" y="223" as="targetPoint" />
          </mxGeometry>
        </mxCell>
        <mxCell id="e1WzZySRsdqQACFZxS4t-394" value="" style="endArrow=none;html=1;exitX=1;exitY=0.5;exitDx=0;exitDy=0;strokeWidth=0.3;" edge="1" parent="1">
          <mxGeometry width="50" height="50" relative="1" as="geometry">
            <mxPoint x="320" y="221.5" as="sourcePoint" />
            <mxPoint x="440" y="331.5" as="targetPoint" />
          </mxGeometry>
        </mxCell>
        <mxCell id="e1WzZySRsdqQACFZxS4t-395" value="" style="endArrow=none;html=1;strokeWidth=0.3;" edge="1" parent="1">
          <mxGeometry width="50" height="50" relative="1" as="geometry">
            <mxPoint x="320" y="221.5" as="sourcePoint" />
            <mxPoint x="440" y="381.5" as="targetPoint" />
          </mxGeometry>
        </mxCell>
        <mxCell id="e1WzZySRsdqQACFZxS4t-396" value="" style="endArrow=none;html=1;strokeWidth=0.3;" edge="1" parent="1">
          <mxGeometry width="50" height="50" relative="1" as="geometry">
            <mxPoint x="320" y="221.5" as="sourcePoint" />
            <mxPoint x="440" y="431.5" as="targetPoint" />
          </mxGeometry>
        </mxCell>
        <mxCell id="e1WzZySRsdqQACFZxS4t-397" value="" style="endArrow=none;html=1;entryX=0;entryY=0.5;entryDx=0;entryDy=0;strokeWidth=0.3;" edge="1" parent="1">
          <mxGeometry width="50" height="50" relative="1" as="geometry">
            <mxPoint x="320" y="221.5" as="sourcePoint" />
            <mxPoint x="440" y="481.5" as="targetPoint" />
          </mxGeometry>
        </mxCell>
        <mxCell id="e1WzZySRsdqQACFZxS4t-398" value="" style="endArrow=none;html=1;strokeWidth=0.3;" edge="1" parent="1">
          <mxGeometry width="50" height="50" relative="1" as="geometry">
            <mxPoint x="320" y="221.5" as="sourcePoint" />
            <mxPoint x="440" y="541.5" as="targetPoint" />
          </mxGeometry>
        </mxCell>
        <mxCell id="e1WzZySRsdqQACFZxS4t-399" value="" style="endArrow=none;html=1;strokeWidth=0.3;" edge="1" parent="1">
          <mxGeometry width="50" height="50" relative="1" as="geometry">
            <mxPoint x="320" y="221.5" as="sourcePoint" />
            <mxPoint x="440" y="591.5" as="targetPoint" />
          </mxGeometry>
        </mxCell>
        <mxCell id="e1WzZySRsdqQACFZxS4t-400" value="" style="endArrow=none;html=1;exitX=1;exitY=0.5;exitDx=0;exitDy=0;strokeWidth=0.3;" edge="1" parent="1">
          <mxGeometry width="50" height="50" relative="1" as="geometry">
            <mxPoint x="320" y="221.5" as="sourcePoint" />
            <mxPoint x="440" y="641.5" as="targetPoint" />
          </mxGeometry>
        </mxCell>
        <mxCell id="e1WzZySRsdqQACFZxS4t-401" value="" style="endArrow=none;html=1;entryX=0;entryY=0.5;entryDx=0;entryDy=0;strokeWidth=0.3;" edge="1" parent="1">
          <mxGeometry width="50" height="50" relative="1" as="geometry">
            <mxPoint x="320" y="280.5" as="sourcePoint" />
            <mxPoint x="440" y="280.5" as="targetPoint" />
          </mxGeometry>
        </mxCell>
        <mxCell id="e1WzZySRsdqQACFZxS4t-402" value="" style="endArrow=none;html=1;entryX=0;entryY=0.5;entryDx=0;entryDy=0;strokeWidth=0.3;" edge="1" parent="1">
          <mxGeometry width="50" height="50" relative="1" as="geometry">
            <mxPoint x="320" y="331" as="sourcePoint" />
            <mxPoint x="440" y="331" as="targetPoint" />
          </mxGeometry>
        </mxCell>
        <mxCell id="e1WzZySRsdqQACFZxS4t-403" value="" style="endArrow=none;html=1;entryX=0;entryY=0.5;entryDx=0;entryDy=0;strokeWidth=0.3;" edge="1" parent="1">
          <mxGeometry width="50" height="50" relative="1" as="geometry">
            <mxPoint x="320" y="381" as="sourcePoint" />
            <mxPoint x="440" y="381" as="targetPoint" />
          </mxGeometry>
        </mxCell>
        <mxCell id="e1WzZySRsdqQACFZxS4t-404" value="" style="endArrow=none;html=1;entryX=0;entryY=0.5;entryDx=0;entryDy=0;strokeWidth=0.3;" edge="1" parent="1">
          <mxGeometry width="50" height="50" relative="1" as="geometry">
            <mxPoint x="320" y="431" as="sourcePoint" />
            <mxPoint x="440" y="431" as="targetPoint" />
          </mxGeometry>
        </mxCell>
        <mxCell id="e1WzZySRsdqQACFZxS4t-405" value="" style="endArrow=none;html=1;entryX=0;entryY=0.5;entryDx=0;entryDy=0;strokeWidth=0.3;" edge="1" parent="1">
          <mxGeometry width="50" height="50" relative="1" as="geometry">
            <mxPoint x="320" y="481" as="sourcePoint" />
            <mxPoint x="440" y="481" as="targetPoint" />
          </mxGeometry>
        </mxCell>
        <mxCell id="e1WzZySRsdqQACFZxS4t-406" value="" style="endArrow=none;html=1;entryX=0;entryY=0.5;entryDx=0;entryDy=0;strokeWidth=0.3;" edge="1" parent="1">
          <mxGeometry width="50" height="50" relative="1" as="geometry">
            <mxPoint x="320" y="541" as="sourcePoint" />
            <mxPoint x="440" y="541" as="targetPoint" />
          </mxGeometry>
        </mxCell>
        <mxCell id="e1WzZySRsdqQACFZxS4t-407" value="" style="endArrow=none;html=1;entryX=0;entryY=0.5;entryDx=0;entryDy=0;strokeWidth=0.3;" edge="1" parent="1">
          <mxGeometry width="50" height="50" relative="1" as="geometry">
            <mxPoint x="320" y="591" as="sourcePoint" />
            <mxPoint x="440" y="591" as="targetPoint" />
          </mxGeometry>
        </mxCell>
        <mxCell id="e1WzZySRsdqQACFZxS4t-408" value="" style="endArrow=none;html=1;entryX=0;entryY=0.5;entryDx=0;entryDy=0;strokeWidth=0.3;" edge="1" parent="1">
          <mxGeometry width="50" height="50" relative="1" as="geometry">
            <mxPoint x="320" y="641" as="sourcePoint" />
            <mxPoint x="440" y="641" as="targetPoint" />
          </mxGeometry>
        </mxCell>
        <mxCell id="e1WzZySRsdqQACFZxS4t-409" value="" style="endArrow=none;html=1;exitX=1;exitY=0.5;exitDx=0;exitDy=0;strokeWidth=0.3;" edge="1" parent="1">
          <mxGeometry width="50" height="50" relative="1" as="geometry">
            <mxPoint x="320" y="331.5" as="sourcePoint" />
            <mxPoint x="440" y="381.5" as="targetPoint" />
          </mxGeometry>
        </mxCell>
        <mxCell id="e1WzZySRsdqQACFZxS4t-410" value="" style="endArrow=none;html=1;entryX=0;entryY=0.5;entryDx=0;entryDy=0;strokeWidth=0.3;" edge="1" parent="1">
          <mxGeometry width="50" height="50" relative="1" as="geometry">
            <mxPoint x="320" y="331.5" as="sourcePoint" />
            <mxPoint x="440" y="281.5" as="targetPoint" />
          </mxGeometry>
        </mxCell>
        <mxCell id="e1WzZySRsdqQACFZxS4t-411" value="" style="endArrow=none;html=1;strokeWidth=0.3;" edge="1" parent="1">
          <mxGeometry width="50" height="50" relative="1" as="geometry">
            <mxPoint x="320" y="281.5" as="sourcePoint" />
            <mxPoint x="440" y="223" as="targetPoint" />
          </mxGeometry>
        </mxCell>
        <mxCell id="e1WzZySRsdqQACFZxS4t-412" value="" style="endArrow=none;html=1;exitX=0;exitY=0.5;exitDx=0;exitDy=0;entryX=1;entryY=0.5;entryDx=0;entryDy=0;strokeWidth=0.3;" edge="1" parent="1">
          <mxGeometry width="50" height="50" relative="1" as="geometry">
            <mxPoint x="440" y="381.5" as="sourcePoint" />
            <mxPoint x="320" y="431.5" as="targetPoint" />
          </mxGeometry>
        </mxCell>
        <mxCell id="e1WzZySRsdqQACFZxS4t-413" value="" style="endArrow=none;html=1;entryX=0;entryY=0.5;entryDx=0;entryDy=0;exitX=1;exitY=0.5;exitDx=0;exitDy=0;strokeWidth=0.3;" edge="1" parent="1">
          <mxGeometry width="50" height="50" relative="1" as="geometry">
            <mxPoint x="320" y="381.5" as="sourcePoint" />
            <mxPoint x="440" y="331.5" as="targetPoint" />
          </mxGeometry>
        </mxCell>
        <mxCell id="e1WzZySRsdqQACFZxS4t-414" value="" style="endArrow=none;html=1;exitX=1;exitY=0.5;exitDx=0;exitDy=0;strokeWidth=0.3;" edge="1" parent="1">
          <mxGeometry width="50" height="50" relative="1" as="geometry">
            <mxPoint x="320" y="431.5" as="sourcePoint" />
            <mxPoint x="440" y="481.5" as="targetPoint" />
          </mxGeometry>
        </mxCell>
        <mxCell id="e1WzZySRsdqQACFZxS4t-415" value="" style="endArrow=none;html=1;entryX=1;entryY=0.5;entryDx=0;entryDy=0;strokeWidth=0.3;" edge="1" parent="1">
          <mxGeometry width="50" height="50" relative="1" as="geometry">
            <mxPoint x="440" y="591.5" as="sourcePoint" />
            <mxPoint x="320" y="481.5" as="targetPoint" />
          </mxGeometry>
        </mxCell>
        <mxCell id="e1WzZySRsdqQACFZxS4t-416" value="" style="endArrow=none;html=1;entryX=0;entryY=0.5;entryDx=0;entryDy=0;strokeWidth=0.3;" edge="1" parent="1">
          <mxGeometry width="50" height="50" relative="1" as="geometry">
            <mxPoint x="320" y="541.5" as="sourcePoint" />
            <mxPoint x="440" y="481.5" as="targetPoint" />
          </mxGeometry>
        </mxCell>
        <mxCell id="e1WzZySRsdqQACFZxS4t-417" value="" style="endArrow=none;html=1;entryX=1;entryY=0.5;entryDx=0;entryDy=0;exitX=0;exitY=0.5;exitDx=0;exitDy=0;strokeWidth=0.3;" edge="1" parent="1">
          <mxGeometry width="50" height="50" relative="1" as="geometry">
            <mxPoint x="440" y="431.5" as="sourcePoint" />
            <mxPoint x="320" y="591.5" as="targetPoint" />
          </mxGeometry>
        </mxCell>
        <mxCell id="e1WzZySRsdqQACFZxS4t-418" value="" style="endArrow=none;html=1;exitX=1;exitY=0.5;exitDx=0;exitDy=0;strokeWidth=0.3;" edge="1" parent="1">
          <mxGeometry width="50" height="50" relative="1" as="geometry">
            <mxPoint x="320" y="641.5" as="sourcePoint" />
            <mxPoint x="440" y="431.5" as="targetPoint" />
          </mxGeometry>
        </mxCell>
        <mxCell id="e1WzZySRsdqQACFZxS4t-419" value="" style="endArrow=none;html=1;strokeWidth=0.3;" edge="1" parent="1">
          <mxGeometry width="50" height="50" relative="1" as="geometry">
            <mxPoint x="320" y="641.5" as="sourcePoint" />
            <mxPoint x="440" y="541.5" as="targetPoint" />
          </mxGeometry>
        </mxCell>
        <mxCell id="e1WzZySRsdqQACFZxS4t-420" value="" style="endArrow=none;html=1;entryX=0;entryY=0.5;entryDx=0;entryDy=0;exitX=1;exitY=0.5;exitDx=0;exitDy=0;strokeWidth=0.3;" edge="1" parent="1">
          <mxGeometry width="50" height="50" relative="1" as="geometry">
            <mxPoint x="320" y="641.5" as="sourcePoint" />
            <mxPoint x="440" y="591.5" as="targetPoint" />
          </mxGeometry>
        </mxCell>
        <mxCell id="e1WzZySRsdqQACFZxS4t-421" value="" style="endArrow=none;html=1;entryX=0;entryY=0.5;entryDx=0;entryDy=0;strokeWidth=0.3;" edge="1" parent="1">
          <mxGeometry width="50" height="50" relative="1" as="geometry">
            <mxPoint x="320" y="481.5" as="sourcePoint" />
            <mxPoint x="440" y="431.5" as="targetPoint" />
          </mxGeometry>
        </mxCell>
        <mxCell id="e1WzZySRsdqQACFZxS4t-422" value="" style="endArrow=none;html=1;exitX=1;exitY=0.5;exitDx=0;exitDy=0;strokeWidth=0.3;" edge="1" parent="1">
          <mxGeometry width="50" height="50" relative="1" as="geometry">
            <mxPoint x="320" y="431.5" as="sourcePoint" />
            <mxPoint x="440" y="331.5" as="targetPoint" />
          </mxGeometry>
        </mxCell>
        <mxCell id="e1WzZySRsdqQACFZxS4t-423" value="" style="endArrow=none;html=1;entryX=0;entryY=0.5;entryDx=0;entryDy=0;strokeWidth=0.3;" edge="1" parent="1">
          <mxGeometry width="50" height="50" relative="1" as="geometry">
            <mxPoint x="320" y="381.5" as="sourcePoint" />
            <mxPoint x="440" y="431.5" as="targetPoint" />
          </mxGeometry>
        </mxCell>
        <mxCell id="e1WzZySRsdqQACFZxS4t-424" value="" style="endArrow=none;html=1;entryX=0;entryY=0.5;entryDx=0;entryDy=0;strokeWidth=0.3;" edge="1" parent="1">
          <mxGeometry width="50" height="50" relative="1" as="geometry">
            <mxPoint x="320" y="541.5" as="sourcePoint" />
            <mxPoint x="440" y="591.5" as="targetPoint" />
          </mxGeometry>
        </mxCell>
        <mxCell id="e1WzZySRsdqQACFZxS4t-425" value="" style="endArrow=none;html=1;exitX=1;exitY=0.5;exitDx=0;exitDy=0;strokeWidth=0.3;" edge="1" parent="1">
          <mxGeometry width="50" height="50" relative="1" as="geometry">
            <mxPoint x="320" y="431.5" as="sourcePoint" />
            <mxPoint x="440" y="281.5" as="targetPoint" />
          </mxGeometry>
        </mxCell>
        <mxCell id="e1WzZySRsdqQACFZxS4t-426" value="" style="endArrow=none;html=1;strokeWidth=0.3;" edge="1" parent="1">
          <mxGeometry width="50" height="50" relative="1" as="geometry">
            <mxPoint x="320" y="541.5" as="sourcePoint" />
            <mxPoint x="440" y="431.5" as="targetPoint" />
          </mxGeometry>
        </mxCell>
        <mxCell id="e1WzZySRsdqQACFZxS4t-427" value="" style="endArrow=none;html=1;entryX=0;entryY=0.5;entryDx=0;entryDy=0;strokeWidth=0.3;" edge="1" parent="1">
          <mxGeometry width="50" height="50" relative="1" as="geometry">
            <mxPoint x="320" y="641" as="sourcePoint" />
            <mxPoint x="440" y="381.5" as="targetPoint" />
          </mxGeometry>
        </mxCell>
        <mxCell id="e1WzZySRsdqQACFZxS4t-428" value="" style="endArrow=none;html=1;strokeWidth=0.3;" edge="1" parent="1">
          <mxGeometry width="50" height="50" relative="1" as="geometry">
            <mxPoint x="320" y="641" as="sourcePoint" />
            <mxPoint x="440" y="331.5" as="targetPoint" />
          </mxGeometry>
        </mxCell>
        <mxCell id="e1WzZySRsdqQACFZxS4t-429" value="" style="endArrow=none;html=1;entryX=0;entryY=0.5;entryDx=0;entryDy=0;strokeWidth=0.3;" edge="1" parent="1">
          <mxGeometry width="50" height="50" relative="1" as="geometry">
            <mxPoint x="320" y="641" as="sourcePoint" />
            <mxPoint x="440" y="281.5" as="targetPoint" />
          </mxGeometry>
        </mxCell>
        <mxCell id="e1WzZySRsdqQACFZxS4t-430" value="" style="endArrow=none;html=1;strokeWidth=0.3;" edge="1" parent="1">
          <mxGeometry width="50" height="50" relative="1" as="geometry">
            <mxPoint x="320" y="641" as="sourcePoint" />
            <mxPoint x="440" y="221.5" as="targetPoint" />
          </mxGeometry>
        </mxCell>
        <mxCell id="e1WzZySRsdqQACFZxS4t-431" value="" style="endArrow=none;html=1;entryX=0;entryY=1;entryDx=0;entryDy=0;strokeWidth=0.3;" edge="1" parent="1">
          <mxGeometry width="50" height="50" relative="1" as="geometry">
            <mxPoint x="320" y="642.93" as="sourcePoint" />
            <mxPoint x="442.9289321881347" y="173.5010678118653" as="targetPoint" />
          </mxGeometry>
        </mxCell>
        <mxCell id="e1WzZySRsdqQACFZxS4t-432" value="" style="endArrow=none;html=1;exitX=1;exitY=0.5;exitDx=0;exitDy=0;entryX=0;entryY=1;entryDx=0;entryDy=0;strokeWidth=0.3;" edge="1" parent="1">
          <mxGeometry width="50" height="50" relative="1" as="geometry">
            <mxPoint x="320" y="281.5" as="sourcePoint" />
            <mxPoint x="442.9289321881347" y="171.5710678118653" as="targetPoint" />
          </mxGeometry>
        </mxCell>
        <mxCell id="e1WzZySRsdqQACFZxS4t-433" value="" style="endArrow=none;html=1;exitX=1;exitY=0.5;exitDx=0;exitDy=0;strokeWidth=0.3;" edge="1" parent="1">
          <mxGeometry width="50" height="50" relative="1" as="geometry">
            <mxPoint x="320" y="281.5" as="sourcePoint" />
            <mxPoint x="440" y="331.5" as="targetPoint" />
          </mxGeometry>
        </mxCell>
        <mxCell id="e1WzZySRsdqQACFZxS4t-434" value="" style="endArrow=none;html=1;exitX=1;exitY=0.5;exitDx=0;exitDy=0;strokeWidth=0.3;" edge="1" parent="1">
          <mxGeometry width="50" height="50" relative="1" as="geometry">
            <mxPoint x="320" y="331.5" as="sourcePoint" />
            <mxPoint x="440" y="220" as="targetPoint" />
          </mxGeometry>
        </mxCell>
        <mxCell id="e1WzZySRsdqQACFZxS4t-435" value="" style="endArrow=none;html=1;exitX=1;exitY=0.5;exitDx=0;exitDy=0;strokeWidth=0.3;" edge="1" parent="1">
          <mxGeometry width="50" height="50" relative="1" as="geometry">
            <mxPoint x="320" y="331.43000000000006" as="sourcePoint" />
            <mxPoint x="443" y="171.5" as="targetPoint" />
          </mxGeometry>
        </mxCell>
        <mxCell id="e1WzZySRsdqQACFZxS4t-436" value="" style="endArrow=none;html=1;entryX=0;entryY=0.5;entryDx=0;entryDy=0;exitX=1;exitY=0.5;exitDx=0;exitDy=0;strokeWidth=0.3;" edge="1" parent="1">
          <mxGeometry width="50" height="50" relative="1" as="geometry">
            <mxPoint x="320" y="331.43000000000006" as="sourcePoint" />
            <mxPoint x="440" y="431.5" as="targetPoint" />
          </mxGeometry>
        </mxCell>
        <mxCell id="e1WzZySRsdqQACFZxS4t-437" value="" style="endArrow=none;html=1;exitX=1;exitY=0.5;exitDx=0;exitDy=0;strokeWidth=0.3;" edge="1" parent="1">
          <mxGeometry width="50" height="50" relative="1" as="geometry">
            <mxPoint x="320" y="281.5" as="sourcePoint" />
            <mxPoint x="440" y="381.5" as="targetPoint" />
          </mxGeometry>
        </mxCell>
        <mxCell id="e1WzZySRsdqQACFZxS4t-438" value="" style="endArrow=none;html=1;entryX=0;entryY=0.5;entryDx=0;entryDy=0;exitX=1;exitY=0.5;exitDx=0;exitDy=0;strokeWidth=0.3;" edge="1" parent="1">
          <mxGeometry width="50" height="50" relative="1" as="geometry">
            <mxPoint x="320" y="281.5" as="sourcePoint" />
            <mxPoint x="440" y="431.5" as="targetPoint" />
          </mxGeometry>
        </mxCell>
        <mxCell id="e1WzZySRsdqQACFZxS4t-439" value="" style="endArrow=none;html=1;strokeWidth=0.3;" edge="1" parent="1">
          <mxGeometry width="50" height="50" relative="1" as="geometry">
            <mxPoint x="320" y="281.5" as="sourcePoint" />
            <mxPoint x="440" y="481.5" as="targetPoint" />
          </mxGeometry>
        </mxCell>
        <mxCell id="e1WzZySRsdqQACFZxS4t-440" value="" style="endArrow=none;html=1;strokeWidth=0.3;" edge="1" parent="1">
          <mxGeometry width="50" height="50" relative="1" as="geometry">
            <mxPoint x="320" y="281.5" as="sourcePoint" />
            <mxPoint x="440" y="541.5" as="targetPoint" />
          </mxGeometry>
        </mxCell>
        <mxCell id="e1WzZySRsdqQACFZxS4t-441" value="" style="endArrow=none;html=1;entryX=0;entryY=0.5;entryDx=0;entryDy=0;exitX=1;exitY=0.5;exitDx=0;exitDy=0;strokeWidth=0.3;" edge="1" parent="1">
          <mxGeometry width="50" height="50" relative="1" as="geometry">
            <mxPoint x="320" y="281.5" as="sourcePoint" />
            <mxPoint x="440" y="591.5" as="targetPoint" />
          </mxGeometry>
        </mxCell>
        <mxCell id="e1WzZySRsdqQACFZxS4t-442" value="" style="endArrow=none;html=1;entryX=0;entryY=0.5;entryDx=0;entryDy=0;exitX=1;exitY=0.5;exitDx=0;exitDy=0;strokeWidth=0.3;" edge="1" parent="1">
          <mxGeometry width="50" height="50" relative="1" as="geometry">
            <mxPoint x="320" y="281.5" as="sourcePoint" />
            <mxPoint x="440" y="591.5" as="targetPoint" />
          </mxGeometry>
        </mxCell>
        <mxCell id="e1WzZySRsdqQACFZxS4t-443" value="" style="endArrow=none;html=1;entryX=0;entryY=0.5;entryDx=0;entryDy=0;exitX=1;exitY=0.5;exitDx=0;exitDy=0;strokeWidth=0.3;" edge="1" parent="1">
          <mxGeometry width="50" height="50" relative="1" as="geometry">
            <mxPoint x="320" y="281.5" as="sourcePoint" />
            <mxPoint x="440" y="641.5" as="targetPoint" />
          </mxGeometry>
        </mxCell>
        <mxCell id="e1WzZySRsdqQACFZxS4t-444" value="" style="endArrow=none;html=1;exitX=1;exitY=0.5;exitDx=0;exitDy=0;strokeWidth=0.3;" edge="1" parent="1">
          <mxGeometry width="50" height="50" relative="1" as="geometry">
            <mxPoint x="320" y="331.43000000000006" as="sourcePoint" />
            <mxPoint x="440" y="641.5" as="targetPoint" />
          </mxGeometry>
        </mxCell>
        <mxCell id="e1WzZySRsdqQACFZxS4t-445" value="" style="endArrow=none;html=1;exitX=1;exitY=0.5;exitDx=0;exitDy=0;strokeWidth=0.3;" edge="1" parent="1">
          <mxGeometry width="50" height="50" relative="1" as="geometry">
            <mxPoint x="320" y="381.43000000000006" as="sourcePoint" />
            <mxPoint x="440" y="281.5" as="targetPoint" />
          </mxGeometry>
        </mxCell>
        <mxCell id="e1WzZySRsdqQACFZxS4t-446" value="" style="endArrow=none;html=1;strokeWidth=0.3;" edge="1" parent="1">
          <mxGeometry width="50" height="50" relative="1" as="geometry">
            <mxPoint x="320" y="431.5" as="sourcePoint" />
            <mxPoint x="440" y="591.5" as="targetPoint" />
          </mxGeometry>
        </mxCell>
        <mxCell id="e1WzZySRsdqQACFZxS4t-447" value="" style="endArrow=none;html=1;strokeWidth=0.3;" edge="1" parent="1">
          <mxGeometry width="50" height="50" relative="1" as="geometry">
            <mxPoint x="320" y="381.5" as="sourcePoint" />
            <mxPoint x="440" y="541.5" as="targetPoint" />
          </mxGeometry>
        </mxCell>
        <mxCell id="e1WzZySRsdqQACFZxS4t-448" value="" style="endArrow=none;html=1;entryX=0;entryY=0.5;entryDx=0;entryDy=0;strokeWidth=0.3;" edge="1" parent="1">
          <mxGeometry width="50" height="50" relative="1" as="geometry">
            <mxPoint x="320" y="381.5" as="sourcePoint" />
            <mxPoint x="440" y="641.5" as="targetPoint" />
          </mxGeometry>
        </mxCell>
        <mxCell id="e1WzZySRsdqQACFZxS4t-449" value="" style="endArrow=none;html=1;entryX=0;entryY=0.5;entryDx=0;entryDy=0;exitX=1;exitY=0.5;exitDx=0;exitDy=0;strokeWidth=0.3;" edge="1" parent="1">
          <mxGeometry width="50" height="50" relative="1" as="geometry">
            <mxPoint x="320" y="431.43000000000006" as="sourcePoint" />
            <mxPoint x="440" y="641.5" as="targetPoint" />
          </mxGeometry>
        </mxCell>
        <mxCell id="e1WzZySRsdqQACFZxS4t-450" value="" style="endArrow=none;html=1;entryX=0;entryY=0.5;entryDx=0;entryDy=0;strokeWidth=0.3;" edge="1" parent="1">
          <mxGeometry width="50" height="50" relative="1" as="geometry">
            <mxPoint x="320" y="481.5" as="sourcePoint" />
            <mxPoint x="440" y="381.5" as="targetPoint" />
          </mxGeometry>
        </mxCell>
        <mxCell id="e1WzZySRsdqQACFZxS4t-451" value="" style="endArrow=none;html=1;strokeWidth=0.3;" edge="1" parent="1">
          <mxGeometry width="50" height="50" relative="1" as="geometry">
            <mxPoint x="320" y="481.5" as="sourcePoint" />
            <mxPoint x="440" y="331.5" as="targetPoint" />
          </mxGeometry>
        </mxCell>
        <mxCell id="e1WzZySRsdqQACFZxS4t-452" value="" style="endArrow=none;html=1;entryX=0;entryY=0.5;entryDx=0;entryDy=0;exitX=1;exitY=0.5;exitDx=0;exitDy=0;strokeWidth=0.3;" edge="1" parent="1">
          <mxGeometry width="50" height="50" relative="1" as="geometry">
            <mxPoint x="320" y="481.43000000000006" as="sourcePoint" />
            <mxPoint x="440" y="281.5" as="targetPoint" />
          </mxGeometry>
        </mxCell>
        <mxCell id="e1WzZySRsdqQACFZxS4t-453" value="" style="endArrow=none;html=1;exitX=1;exitY=0.5;exitDx=0;exitDy=0;strokeWidth=0.3;" edge="1" parent="1">
          <mxGeometry width="50" height="50" relative="1" as="geometry">
            <mxPoint x="320" y="481.43000000000006" as="sourcePoint" />
            <mxPoint x="443" y="171.5" as="targetPoint" />
          </mxGeometry>
        </mxCell>
        <mxCell id="e1WzZySRsdqQACFZxS4t-454" value="" style="endArrow=none;html=1;exitX=1;exitY=0.5;exitDx=0;exitDy=0;strokeWidth=0.3;" edge="1" parent="1">
          <mxGeometry width="50" height="50" relative="1" as="geometry">
            <mxPoint x="320" y="541.4300000000001" as="sourcePoint" />
            <mxPoint x="440" y="381.5" as="targetPoint" />
          </mxGeometry>
        </mxCell>
        <mxCell id="e1WzZySRsdqQACFZxS4t-455" value="" style="endArrow=none;html=1;entryX=0;entryY=0.5;entryDx=0;entryDy=0;exitX=1;exitY=0.5;exitDx=0;exitDy=0;strokeWidth=0.3;" edge="1" parent="1">
          <mxGeometry width="50" height="50" relative="1" as="geometry">
            <mxPoint x="320" y="541.4300000000001" as="sourcePoint" />
            <mxPoint x="440" y="641.5" as="targetPoint" />
          </mxGeometry>
        </mxCell>
        <mxCell id="e1WzZySRsdqQACFZxS4t-456" value="" style="endArrow=none;html=1;exitX=1;exitY=0.5;exitDx=0;exitDy=0;strokeWidth=0.3;" edge="1" parent="1">
          <mxGeometry width="50" height="50" relative="1" as="geometry">
            <mxPoint x="320" y="591.4300000000001" as="sourcePoint" />
            <mxPoint x="440" y="331.5" as="targetPoint" />
          </mxGeometry>
        </mxCell>
        <mxCell id="e1WzZySRsdqQACFZxS4t-457" value="" style="endArrow=none;html=1;entryX=0;entryY=0.5;entryDx=0;entryDy=0;exitX=1;exitY=0.5;exitDx=0;exitDy=0;strokeWidth=0.3;" edge="1" parent="1">
          <mxGeometry width="50" height="50" relative="1" as="geometry">
            <mxPoint x="320" y="591.4300000000001" as="sourcePoint" />
            <mxPoint x="440" y="641.5" as="targetPoint" />
          </mxGeometry>
        </mxCell>
        <mxCell id="e1WzZySRsdqQACFZxS4t-458" value="" style="endArrow=none;html=1;entryX=0;entryY=1;entryDx=0;entryDy=0;exitX=1;exitY=0.5;exitDx=0;exitDy=0;strokeWidth=0.3;" edge="1" parent="1">
          <mxGeometry width="50" height="50" relative="1" as="geometry">
            <mxPoint x="320" y="591.4300000000001" as="sourcePoint" />
            <mxPoint x="442.9289321881347" y="541.5010678118654" as="targetPoint" />
          </mxGeometry>
        </mxCell>
        <mxCell id="e1WzZySRsdqQACFZxS4t-459" value="" style="endArrow=none;html=1;exitX=1;exitY=0.5;exitDx=0;exitDy=0;strokeWidth=0.3;" edge="1" parent="1">
          <mxGeometry width="50" height="50" relative="1" as="geometry">
            <mxPoint x="321" y="592.4300000000001" as="sourcePoint" />
            <mxPoint x="441" y="172.5" as="targetPoint" />
          </mxGeometry>
        </mxCell>
        <mxCell id="e1WzZySRsdqQACFZxS4t-460" value="" style="endArrow=none;html=1;exitX=1;exitY=0.5;exitDx=0;exitDy=0;strokeWidth=0.3;" edge="1" parent="1">
          <mxGeometry width="50" height="50" relative="1" as="geometry">
            <mxPoint x="320" y="541.4299999999998" as="sourcePoint" />
            <mxPoint x="440" y="331.5" as="targetPoint" />
          </mxGeometry>
        </mxCell>
        <mxCell id="e1WzZySRsdqQACFZxS4t-461" value="" style="endArrow=none;html=1;exitX=1;exitY=0.5;exitDx=0;exitDy=0;strokeWidth=0.3;" edge="1" parent="1">
          <mxGeometry width="50" height="50" relative="1" as="geometry">
            <mxPoint x="320" y="541.4299999999998" as="sourcePoint" />
            <mxPoint x="440" y="281.5" as="targetPoint" />
          </mxGeometry>
        </mxCell>
        <mxCell id="e1WzZySRsdqQACFZxS4t-462" value="" style="endArrow=none;html=1;exitX=1;exitY=0.5;exitDx=0;exitDy=0;strokeWidth=0.3;" edge="1" parent="1">
          <mxGeometry width="50" height="50" relative="1" as="geometry">
            <mxPoint x="320" y="541.4299999999998" as="sourcePoint" />
            <mxPoint x="440" y="220" as="targetPoint" />
          </mxGeometry>
        </mxCell>
        <mxCell id="e1WzZySRsdqQACFZxS4t-465" value="" style="endArrow=none;html=1;strokeWidth=0.3;" edge="1" parent="1">
          <mxGeometry width="50" height="50" relative="1" as="geometry">
            <mxPoint x="600" y="170" as="sourcePoint" />
            <mxPoint x="690" y="339" as="targetPoint" />
          </mxGeometry>
        </mxCell>
        <mxCell id="e1WzZySRsdqQACFZxS4t-474" value="" style="endArrow=none;html=1;exitX=1;exitY=1;exitDx=0;exitDy=0;entryX=0;entryY=0.5;entryDx=0;entryDy=0;strokeWidth=0.3;" edge="1" parent="1" source="e1WzZySRsdqQACFZxS4t-161" target="e1WzZySRsdqQACFZxS4t-46">
          <mxGeometry width="50" height="50" relative="1" as="geometry">
            <mxPoint x="610" y="180" as="sourcePoint" />
            <mxPoint x="680" y="330" as="targetPoint" />
          </mxGeometry>
        </mxCell>
        <mxCell id="e1WzZySRsdqQACFZxS4t-475" value="" style="endArrow=none;html=1;exitX=1;exitY=0.5;exitDx=0;exitDy=0;strokeWidth=0.3;" edge="1" parent="1">
          <mxGeometry width="50" height="50" relative="1" as="geometry">
            <mxPoint x="599" y="278.5" as="sourcePoint" />
            <mxPoint x="689" y="340" as="targetPoint" />
          </mxGeometry>
        </mxCell>
        <mxCell id="e1WzZySRsdqQACFZxS4t-476" value="" style="endArrow=none;html=1;exitX=1;exitY=0.5;exitDx=0;exitDy=0;strokeWidth=0.3;" edge="1" parent="1" source="e1WzZySRsdqQACFZxS4t-163">
          <mxGeometry width="50" height="50" relative="1" as="geometry">
            <mxPoint x="630" y="200" as="sourcePoint" />
            <mxPoint x="690" y="340" as="targetPoint" />
          </mxGeometry>
        </mxCell>
        <mxCell id="e1WzZySRsdqQACFZxS4t-477" value="" style="endArrow=none;html=1;exitX=1;exitY=0.5;exitDx=0;exitDy=0;strokeWidth=0.3;" edge="1" parent="1" source="e1WzZySRsdqQACFZxS4t-164">
          <mxGeometry width="50" height="50" relative="1" as="geometry">
            <mxPoint x="600" y="330" as="sourcePoint" />
            <mxPoint x="690" y="340" as="targetPoint" />
          </mxGeometry>
        </mxCell>
        <mxCell id="e1WzZySRsdqQACFZxS4t-478" value="" style="endArrow=none;html=1;exitX=1;exitY=0.5;exitDx=0;exitDy=0;strokeWidth=0.3;" edge="1" parent="1" source="e1WzZySRsdqQACFZxS4t-165">
          <mxGeometry width="50" height="50" relative="1" as="geometry">
            <mxPoint x="650" y="220" as="sourcePoint" />
            <mxPoint x="690" y="340" as="targetPoint" />
          </mxGeometry>
        </mxCell>
        <mxCell id="e1WzZySRsdqQACFZxS4t-479" value="" style="endArrow=none;html=1;exitX=1;exitY=0.5;exitDx=0;exitDy=0;strokeWidth=0.3;" edge="1" parent="1" source="e1WzZySRsdqQACFZxS4t-166">
          <mxGeometry width="50" height="50" relative="1" as="geometry">
            <mxPoint x="660" y="230" as="sourcePoint" />
            <mxPoint x="690" y="340" as="targetPoint" />
          </mxGeometry>
        </mxCell>
        <mxCell id="e1WzZySRsdqQACFZxS4t-483" value="" style="endArrow=none;html=1;exitX=1;exitY=0.5;exitDx=0;exitDy=0;entryX=0;entryY=0.5;entryDx=0;entryDy=0;strokeWidth=0.3;" edge="1" parent="1" source="e1WzZySRsdqQACFZxS4t-167" target="e1WzZySRsdqQACFZxS4t-46">
          <mxGeometry width="50" height="50" relative="1" as="geometry">
            <mxPoint x="610" y="488.5" as="sourcePoint" />
            <mxPoint x="700" y="350" as="targetPoint" />
          </mxGeometry>
        </mxCell>
        <mxCell id="e1WzZySRsdqQACFZxS4t-484" value="" style="endArrow=none;html=1;exitX=1;exitY=0.5;exitDx=0;exitDy=0;entryX=0;entryY=0.5;entryDx=0;entryDy=0;strokeWidth=0.3;" edge="1" parent="1" source="e1WzZySRsdqQACFZxS4t-168" target="e1WzZySRsdqQACFZxS4t-46">
          <mxGeometry width="50" height="50" relative="1" as="geometry">
            <mxPoint x="620" y="498.5" as="sourcePoint" />
            <mxPoint x="710" y="360" as="targetPoint" />
          </mxGeometry>
        </mxCell>
        <mxCell id="e1WzZySRsdqQACFZxS4t-485" value="" style="endArrow=none;html=1;exitX=1;exitY=0.5;exitDx=0;exitDy=0;strokeWidth=0.3;" edge="1" parent="1" source="e1WzZySRsdqQACFZxS4t-169">
          <mxGeometry width="50" height="50" relative="1" as="geometry">
            <mxPoint x="630" y="508.5" as="sourcePoint" />
            <mxPoint x="690" y="340" as="targetPoint" />
          </mxGeometry>
        </mxCell>
        <mxCell id="e1WzZySRsdqQACFZxS4t-487" value="" style="endArrow=none;html=1;strokeWidth=0.3;" edge="1" parent="1">
          <mxGeometry width="50" height="50" relative="1" as="geometry">
            <mxPoint x="599" y="170" as="sourcePoint" />
            <mxPoint x="690" y="400" as="targetPoint" />
          </mxGeometry>
        </mxCell>
        <mxCell id="e1WzZySRsdqQACFZxS4t-489" value="" style="endArrow=none;html=1;strokeWidth=0.3;" edge="1" parent="1">
          <mxGeometry width="50" height="50" relative="1" as="geometry">
            <mxPoint x="598" y="220" as="sourcePoint" />
            <mxPoint x="690" y="400" as="targetPoint" />
          </mxGeometry>
        </mxCell>
        <mxCell id="e1WzZySRsdqQACFZxS4t-490" value="" style="endArrow=none;html=1;exitX=1;exitY=0.5;exitDx=0;exitDy=0;entryX=0;entryY=0.5;entryDx=0;entryDy=0;strokeWidth=0.3;" edge="1" parent="1" source="e1WzZySRsdqQACFZxS4t-162" target="e1WzZySRsdqQACFZxS4t-47">
          <mxGeometry width="50" height="50" relative="1" as="geometry">
            <mxPoint x="608" y="230" as="sourcePoint" />
            <mxPoint x="700" y="410" as="targetPoint" />
          </mxGeometry>
        </mxCell>
        <mxCell id="e1WzZySRsdqQACFZxS4t-491" value="" style="endArrow=none;html=1;exitX=1;exitY=0.5;exitDx=0;exitDy=0;entryX=0;entryY=0.5;entryDx=0;entryDy=0;strokeWidth=0.3;" edge="1" parent="1" source="e1WzZySRsdqQACFZxS4t-163" target="e1WzZySRsdqQACFZxS4t-47">
          <mxGeometry width="50" height="50" relative="1" as="geometry">
            <mxPoint x="618" y="240" as="sourcePoint" />
            <mxPoint x="710" y="420" as="targetPoint" />
          </mxGeometry>
        </mxCell>
        <mxCell id="e1WzZySRsdqQACFZxS4t-492" value="" style="endArrow=none;html=1;entryX=0;entryY=0.5;entryDx=0;entryDy=0;strokeWidth=0.3;" edge="1" parent="1" target="e1WzZySRsdqQACFZxS4t-47">
          <mxGeometry width="50" height="50" relative="1" as="geometry">
            <mxPoint x="600" y="380" as="sourcePoint" />
            <mxPoint x="720" y="430" as="targetPoint" />
          </mxGeometry>
        </mxCell>
        <mxCell id="e1WzZySRsdqQACFZxS4t-493" value="" style="endArrow=none;html=1;entryX=0;entryY=0.5;entryDx=0;entryDy=0;strokeWidth=0.3;" edge="1" parent="1" target="e1WzZySRsdqQACFZxS4t-47">
          <mxGeometry width="50" height="50" relative="1" as="geometry">
            <mxPoint x="600" y="430" as="sourcePoint" />
            <mxPoint x="730" y="440" as="targetPoint" />
          </mxGeometry>
        </mxCell>
        <mxCell id="e1WzZySRsdqQACFZxS4t-494" value="" style="endArrow=none;html=1;exitX=1;exitY=0.5;exitDx=0;exitDy=0;entryX=0;entryY=0.5;entryDx=0;entryDy=0;strokeWidth=0.3;" edge="1" parent="1" source="e1WzZySRsdqQACFZxS4t-166" target="e1WzZySRsdqQACFZxS4t-47">
          <mxGeometry width="50" height="50" relative="1" as="geometry">
            <mxPoint x="648" y="270" as="sourcePoint" />
            <mxPoint x="740" y="450" as="targetPoint" />
          </mxGeometry>
        </mxCell>
        <mxCell id="e1WzZySRsdqQACFZxS4t-495" value="" style="endArrow=none;html=1;entryX=0;entryY=0.5;entryDx=0;entryDy=0;strokeWidth=0.3;" edge="1" parent="1" target="e1WzZySRsdqQACFZxS4t-47">
          <mxGeometry width="50" height="50" relative="1" as="geometry">
            <mxPoint x="600" y="540" as="sourcePoint" />
            <mxPoint x="750" y="460" as="targetPoint" />
          </mxGeometry>
        </mxCell>
        <mxCell id="e1WzZySRsdqQACFZxS4t-496" value="" style="endArrow=none;html=1;strokeWidth=0.3;" edge="1" parent="1">
          <mxGeometry width="50" height="50" relative="1" as="geometry">
            <mxPoint x="600" y="590" as="sourcePoint" />
            <mxPoint x="690" y="400" as="targetPoint" />
          </mxGeometry>
        </mxCell>
        <mxCell id="e1WzZySRsdqQACFZxS4t-497" value="" style="endArrow=none;html=1;entryX=0;entryY=0.5;entryDx=0;entryDy=0;strokeWidth=0.3;" edge="1" parent="1" target="e1WzZySRsdqQACFZxS4t-47">
          <mxGeometry width="50" height="50" relative="1" as="geometry">
            <mxPoint x="600" y="640" as="sourcePoint" />
            <mxPoint x="770" y="480" as="targetPoint" />
          </mxGeometry>
        </mxCell>
        <mxCell id="e1WzZySRsdqQACFZxS4t-498" value="" style="endArrow=none;html=1;entryX=0;entryY=0.5;entryDx=0;entryDy=0;strokeWidth=0.3;" edge="1" parent="1" target="e1WzZySRsdqQACFZxS4t-48">
          <mxGeometry width="50" height="50" relative="1" as="geometry">
            <mxPoint x="596" y="170" as="sourcePoint" />
            <mxPoint x="780" y="490" as="targetPoint" />
          </mxGeometry>
        </mxCell>
        <mxCell id="e1WzZySRsdqQACFZxS4t-499" value="" style="endArrow=none;html=1;exitX=1;exitY=1;exitDx=0;exitDy=0;strokeWidth=0.3;" edge="1" parent="1" source="e1WzZySRsdqQACFZxS4t-161">
          <mxGeometry width="50" height="50" relative="1" as="geometry">
            <mxPoint x="698" y="320" as="sourcePoint" />
            <mxPoint x="690" y="470" as="targetPoint" />
          </mxGeometry>
        </mxCell>
        <mxCell id="e1WzZySRsdqQACFZxS4t-500" value="" style="endArrow=none;html=1;strokeWidth=0.3;" edge="1" parent="1">
          <mxGeometry width="50" height="50" relative="1" as="geometry">
            <mxPoint x="600" y="280" as="sourcePoint" />
            <mxPoint x="690" y="470" as="targetPoint" />
          </mxGeometry>
        </mxCell>
        <mxCell id="e1WzZySRsdqQACFZxS4t-501" value="" style="endArrow=none;html=1;strokeWidth=0.3;" edge="1" parent="1">
          <mxGeometry width="50" height="50" relative="1" as="geometry">
            <mxPoint x="600" y="330" as="sourcePoint" />
            <mxPoint x="690" y="470" as="targetPoint" />
          </mxGeometry>
        </mxCell>
        <mxCell id="e1WzZySRsdqQACFZxS4t-502" value="" style="endArrow=none;html=1;strokeWidth=0.3;" edge="1" parent="1">
          <mxGeometry width="50" height="50" relative="1" as="geometry">
            <mxPoint x="600" y="380" as="sourcePoint" />
            <mxPoint x="690" y="470" as="targetPoint" />
          </mxGeometry>
        </mxCell>
        <mxCell id="e1WzZySRsdqQACFZxS4t-504" value="" style="endArrow=none;html=1;strokeWidth=0.3;" edge="1" parent="1">
          <mxGeometry width="50" height="50" relative="1" as="geometry">
            <mxPoint x="600" y="430" as="sourcePoint" />
            <mxPoint x="690" y="470" as="targetPoint" />
          </mxGeometry>
        </mxCell>
        <mxCell id="e1WzZySRsdqQACFZxS4t-505" value="" style="endArrow=none;html=1;strokeWidth=0.3;" edge="1" parent="1">
          <mxGeometry width="50" height="50" relative="1" as="geometry">
            <mxPoint x="600" y="478.5" as="sourcePoint" />
            <mxPoint x="690" y="470" as="targetPoint" />
          </mxGeometry>
        </mxCell>
        <mxCell id="e1WzZySRsdqQACFZxS4t-506" value="" style="endArrow=none;html=1;entryX=0;entryY=0.5;entryDx=0;entryDy=0;strokeWidth=0.3;" edge="1" parent="1" target="e1WzZySRsdqQACFZxS4t-49">
          <mxGeometry width="50" height="50" relative="1" as="geometry">
            <mxPoint x="600" y="480" as="sourcePoint" />
            <mxPoint x="680" y="540" as="targetPoint" />
          </mxGeometry>
        </mxCell>
        <mxCell id="e1WzZySRsdqQACFZxS4t-507" value="" style="endArrow=none;html=1;entryX=0;entryY=0.5;entryDx=0;entryDy=0;strokeWidth=0.3;" edge="1" parent="1" target="e1WzZySRsdqQACFZxS4t-49">
          <mxGeometry width="50" height="50" relative="1" as="geometry">
            <mxPoint x="600" y="430" as="sourcePoint" />
            <mxPoint x="692" y="610" as="targetPoint" />
          </mxGeometry>
        </mxCell>
        <mxCell id="e1WzZySRsdqQACFZxS4t-508" value="" style="endArrow=none;html=1;entryX=0;entryY=0.5;entryDx=0;entryDy=0;strokeWidth=0.3;" edge="1" parent="1" target="e1WzZySRsdqQACFZxS4t-49">
          <mxGeometry width="50" height="50" relative="1" as="geometry">
            <mxPoint x="600" y="378.5" as="sourcePoint" />
            <mxPoint x="692" y="558.5" as="targetPoint" />
          </mxGeometry>
        </mxCell>
        <mxCell id="e1WzZySRsdqQACFZxS4t-509" value="" style="endArrow=none;html=1;strokeWidth=0.3;" edge="1" parent="1">
          <mxGeometry width="50" height="50" relative="1" as="geometry">
            <mxPoint x="598" y="328.5" as="sourcePoint" />
            <mxPoint x="690" y="541" as="targetPoint" />
          </mxGeometry>
        </mxCell>
        <mxCell id="e1WzZySRsdqQACFZxS4t-510" value="" style="endArrow=none;html=1;strokeWidth=0.3;" edge="1" parent="1">
          <mxGeometry width="50" height="50" relative="1" as="geometry">
            <mxPoint x="600" y="278.5" as="sourcePoint" />
            <mxPoint x="690" y="540" as="targetPoint" />
          </mxGeometry>
        </mxCell>
        <mxCell id="e1WzZySRsdqQACFZxS4t-511" value="" style="endArrow=none;html=1;strokeWidth=0.3;" edge="1" parent="1">
          <mxGeometry width="50" height="50" relative="1" as="geometry">
            <mxPoint x="600" y="222.5" as="sourcePoint" />
            <mxPoint x="690" y="541" as="targetPoint" />
          </mxGeometry>
        </mxCell>
        <mxCell id="e1WzZySRsdqQACFZxS4t-512" value="" style="endArrow=none;html=1;strokeWidth=0.3;" edge="1" parent="1">
          <mxGeometry width="50" height="50" relative="1" as="geometry">
            <mxPoint x="600" y="170" as="sourcePoint" />
            <mxPoint x="690" y="541" as="targetPoint" />
          </mxGeometry>
        </mxCell>
        <mxCell id="e1WzZySRsdqQACFZxS4t-513" value="" style="endArrow=none;html=1;entryX=1;entryY=0.5;entryDx=0;entryDy=0;strokeWidth=0.3;" edge="1" parent="1" target="e1WzZySRsdqQACFZxS4t-167">
          <mxGeometry width="50" height="50" relative="1" as="geometry">
            <mxPoint x="690" y="540" as="sourcePoint" />
            <mxPoint x="782" y="720" as="targetPoint" />
          </mxGeometry>
        </mxCell>
        <mxCell id="e1WzZySRsdqQACFZxS4t-514" value="" style="endArrow=none;html=1;strokeWidth=0.3;" edge="1" parent="1">
          <mxGeometry width="50" height="50" relative="1" as="geometry">
            <mxPoint x="690" y="540" as="sourcePoint" />
            <mxPoint x="600" y="640" as="targetPoint" />
          </mxGeometry>
        </mxCell>
        <mxCell id="e1WzZySRsdqQACFZxS4t-515" value="" style="endArrow=none;html=1;strokeWidth=0.3;" edge="1" parent="1">
          <mxGeometry width="50" height="50" relative="1" as="geometry">
            <mxPoint x="688" y="470" as="sourcePoint" />
            <mxPoint x="600" y="640" as="targetPoint" />
          </mxGeometry>
        </mxCell>
        <mxCell id="e1WzZySRsdqQACFZxS4t-516" value="" style="endArrow=none;html=1;strokeWidth=0.3;" edge="1" parent="1">
          <mxGeometry width="50" height="50" relative="1" as="geometry">
            <mxPoint x="600" y="590" as="sourcePoint" />
            <mxPoint x="690" y="540" as="targetPoint" />
          </mxGeometry>
        </mxCell>
        <mxCell id="e1WzZySRsdqQACFZxS4t-517" value="" style="endArrow=none;html=1;strokeWidth=0.3;" edge="1" parent="1">
          <mxGeometry width="50" height="50" relative="1" as="geometry">
            <mxPoint x="600" y="590" as="sourcePoint" />
            <mxPoint x="690" y="470" as="targetPoint" />
          </mxGeometry>
        </mxCell>
        <mxCell id="e1WzZySRsdqQACFZxS4t-521" value="" style="endArrow=none;html=1;strokeWidth=0.3;" edge="1" parent="1">
          <mxGeometry width="50" height="50" relative="1" as="geometry">
            <mxPoint x="320" y="380" as="sourcePoint" />
            <mxPoint x="440" y="180" as="targetPoint" />
          </mxGeometry>
        </mxCell>
        <mxCell id="e1WzZySRsdqQACFZxS4t-522" value="" style="endArrow=none;html=1;exitX=1;exitY=0.5;exitDx=0;exitDy=0;strokeWidth=0.3;" edge="1" parent="1">
          <mxGeometry width="50" height="50" relative="1" as="geometry">
            <mxPoint x="180" y="382.43000000000006" as="sourcePoint" />
            <mxPoint x="303" y="170" as="targetPoint" />
          </mxGeometry>
        </mxCell>
        <mxCell id="e1WzZySRsdqQACFZxS4t-523" value="" style="endArrow=none;html=1;exitX=1;exitY=0.5;exitDx=0;exitDy=0;strokeWidth=0.3;" edge="1" parent="1" source="e1WzZySRsdqQACFZxS4t-174">
          <mxGeometry width="50" height="50" relative="1" as="geometry">
            <mxPoint x="456" y="384.71000000000004" as="sourcePoint" />
            <mxPoint x="579" y="172.28" as="targetPoint" />
          </mxGeometry>
        </mxCell>
        <mxCell id="e1WzZySRsdqQACFZxS4t-546" value="pakage 1" style="verticalLabelPosition=bottom;verticalAlign=top;html=1;shape=hexagon;perimeter=hexagonPerimeter2;arcSize=6;size=0.27;strokeWidth=0.3;" vertex="1" parent="1">
          <mxGeometry x="-70" y="278.5" width="100" height="60" as="geometry" />
        </mxCell>
        <mxCell id="e1WzZySRsdqQACFZxS4t-549" value="package 2" style="verticalLabelPosition=bottom;verticalAlign=top;html=1;shape=hexagon;perimeter=hexagonPerimeter2;arcSize=6;size=0.27;strokeWidth=0.3;" vertex="1" parent="1">
          <mxGeometry x="-70" y="378.5" width="100" height="60" as="geometry" />
        </mxCell>
        <mxCell id="e1WzZySRsdqQACFZxS4t-550" value="package 3" style="verticalLabelPosition=bottom;verticalAlign=top;html=1;shape=hexagon;perimeter=hexagonPerimeter2;arcSize=6;size=0.27;strokeWidth=0.3;" vertex="1" parent="1">
          <mxGeometry x="-70" y="488.5" width="100" height="60" as="geometry" />
        </mxCell>
        <mxCell id="e1WzZySRsdqQACFZxS4t-555" value="" style="ellipse;whiteSpace=wrap;html=1;aspect=fixed;fillColor=#fff2cc;strokeColor=#d6b656;strokeWidth=0.3;" vertex="1" parent="1">
          <mxGeometry x="90" y="160" width="20" height="20" as="geometry" />
        </mxCell>
        <mxCell id="e1WzZySRsdqQACFZxS4t-556" value="" style="ellipse;whiteSpace=wrap;html=1;aspect=fixed;fillColor=#fff2cc;strokeColor=#d6b656;strokeWidth=0.3;" vertex="1" parent="1">
          <mxGeometry x="90" y="210" width="20" height="20" as="geometry" />
        </mxCell>
        <mxCell id="e1WzZySRsdqQACFZxS4t-557" value="" style="ellipse;whiteSpace=wrap;html=1;aspect=fixed;fillColor=#fff2cc;strokeColor=#d6b656;strokeWidth=0.3;" vertex="1" parent="1">
          <mxGeometry x="90" y="268.5" width="20" height="20" as="geometry" />
        </mxCell>
        <mxCell id="e1WzZySRsdqQACFZxS4t-558" value="" style="ellipse;whiteSpace=wrap;html=1;aspect=fixed;fillColor=#fff2cc;strokeColor=#d6b656;strokeWidth=0.3;" vertex="1" parent="1">
          <mxGeometry x="90" y="318.5" width="20" height="20" as="geometry" />
        </mxCell>
        <mxCell id="e1WzZySRsdqQACFZxS4t-559" value="" style="endArrow=none;dashed=1;html=1;dashPattern=1 3;strokeWidth=0.3;" edge="1" parent="1">
          <mxGeometry width="50" height="50" relative="1" as="geometry">
            <mxPoint x="100" y="440" as="sourcePoint" />
            <mxPoint x="100" y="350" as="targetPoint" />
          </mxGeometry>
        </mxCell>
        <mxCell id="e1WzZySRsdqQACFZxS4t-560" value="" style="ellipse;whiteSpace=wrap;html=1;aspect=fixed;fillColor=#fff2cc;strokeColor=#d6b656;strokeWidth=0.3;" vertex="1" parent="1">
          <mxGeometry x="90" y="470" width="20" height="20" as="geometry" />
        </mxCell>
        <mxCell id="e1WzZySRsdqQACFZxS4t-565" value="" style="ellipse;whiteSpace=wrap;html=1;aspect=fixed;fillColor=#fff2cc;strokeColor=#d6b656;strokeWidth=0.3;" vertex="1" parent="1">
          <mxGeometry x="90" y="528.5" width="20" height="20" as="geometry" />
        </mxCell>
        <mxCell id="e1WzZySRsdqQACFZxS4t-568" value="" style="ellipse;whiteSpace=wrap;html=1;aspect=fixed;fillColor=#fff2cc;strokeColor=#d6b656;strokeWidth=0.3;" vertex="1" parent="1">
          <mxGeometry x="90" y="582" width="20" height="20" as="geometry" />
        </mxCell>
        <mxCell id="e1WzZySRsdqQACFZxS4t-569" value="" style="ellipse;whiteSpace=wrap;html=1;aspect=fixed;fillColor=#fff2cc;strokeColor=#d6b656;strokeWidth=0.3;" vertex="1" parent="1">
          <mxGeometry x="90" y="630" width="20" height="20" as="geometry" />
        </mxCell>
        <mxCell id="e1WzZySRsdqQACFZxS4t-574" value="" style="endArrow=classic;html=1;strokeWidth=0.3;exitX=1;exitY=0.5;exitDx=0;exitDy=0;entryX=0;entryY=0.5;entryDx=0;entryDy=0;" edge="1" parent="1" source="e1WzZySRsdqQACFZxS4t-555" target="e1WzZySRsdqQACFZxS4t-50">
          <mxGeometry width="50" height="50" relative="1" as="geometry">
            <mxPoint x="210" y="470" as="sourcePoint" />
            <mxPoint x="260" y="420" as="targetPoint" />
          </mxGeometry>
        </mxCell>
        <mxCell id="e1WzZySRsdqQACFZxS4t-576" value="" style="endArrow=classic;html=1;strokeWidth=0.3;exitX=1;exitY=0.5;exitDx=0;exitDy=0;entryX=0;entryY=0.5;entryDx=0;entryDy=0;" edge="1" parent="1">
          <mxGeometry width="50" height="50" relative="1" as="geometry">
            <mxPoint x="110" y="219" as="sourcePoint" />
            <mxPoint x="160" y="219" as="targetPoint" />
          </mxGeometry>
        </mxCell>
        <mxCell id="e1WzZySRsdqQACFZxS4t-577" value="" style="endArrow=classic;html=1;strokeWidth=0.3;exitX=1;exitY=0.5;exitDx=0;exitDy=0;entryX=0;entryY=0.5;entryDx=0;entryDy=0;" edge="1" parent="1">
          <mxGeometry width="50" height="50" relative="1" as="geometry">
            <mxPoint x="110" y="279.5" as="sourcePoint" />
            <mxPoint x="160" y="279.5" as="targetPoint" />
          </mxGeometry>
        </mxCell>
        <mxCell id="e1WzZySRsdqQACFZxS4t-578" value="" style="endArrow=classic;html=1;strokeWidth=0.3;exitX=1;exitY=0.5;exitDx=0;exitDy=0;entryX=0;entryY=0.5;entryDx=0;entryDy=0;" edge="1" parent="1">
          <mxGeometry width="50" height="50" relative="1" as="geometry">
            <mxPoint x="110" y="329.5" as="sourcePoint" />
            <mxPoint x="160" y="329.5" as="targetPoint" />
          </mxGeometry>
        </mxCell>
        <mxCell id="e1WzZySRsdqQACFZxS4t-579" value="" style="endArrow=classic;html=1;strokeWidth=0.3;exitX=1;exitY=0.5;exitDx=0;exitDy=0;entryX=0;entryY=0.5;entryDx=0;entryDy=0;" edge="1" parent="1">
          <mxGeometry width="50" height="50" relative="1" as="geometry">
            <mxPoint x="110" y="479.5" as="sourcePoint" />
            <mxPoint x="160" y="479.5" as="targetPoint" />
          </mxGeometry>
        </mxCell>
        <mxCell id="e1WzZySRsdqQACFZxS4t-580" value="" style="endArrow=classic;html=1;strokeWidth=0.3;exitX=1;exitY=0.5;exitDx=0;exitDy=0;entryX=0;entryY=0.5;entryDx=0;entryDy=0;" edge="1" parent="1">
          <mxGeometry width="50" height="50" relative="1" as="geometry">
            <mxPoint x="110" y="540" as="sourcePoint" />
            <mxPoint x="160" y="540" as="targetPoint" />
          </mxGeometry>
        </mxCell>
        <mxCell id="e1WzZySRsdqQACFZxS4t-581" value="" style="endArrow=classic;html=1;strokeWidth=0.3;exitX=1;exitY=0.5;exitDx=0;exitDy=0;entryX=0;entryY=0.5;entryDx=0;entryDy=0;" edge="1" parent="1">
          <mxGeometry width="50" height="50" relative="1" as="geometry">
            <mxPoint x="110" y="591.5" as="sourcePoint" />
            <mxPoint x="160" y="591.5" as="targetPoint" />
          </mxGeometry>
        </mxCell>
        <mxCell id="e1WzZySRsdqQACFZxS4t-582" value="" style="endArrow=classic;html=1;strokeWidth=0.3;exitX=1;exitY=0.5;exitDx=0;exitDy=0;entryX=0;entryY=0.5;entryDx=0;entryDy=0;" edge="1" parent="1">
          <mxGeometry width="50" height="50" relative="1" as="geometry">
            <mxPoint x="110" y="639.5" as="sourcePoint" />
            <mxPoint x="160" y="639.5" as="targetPoint" />
          </mxGeometry>
        </mxCell>
        <mxCell id="e1WzZySRsdqQACFZxS4t-583" value="" style="shape=flexArrow;endArrow=classic;html=1;strokeWidth=0.3;exitX=1;exitY=0.5;exitDx=0;exitDy=0;fillColor=#dae8fc;strokeColor=#6c8ebf;" edge="1" parent="1" source="e1WzZySRsdqQACFZxS4t-549">
          <mxGeometry width="50" height="50" relative="1" as="geometry">
            <mxPoint x="40" y="410" as="sourcePoint" />
            <mxPoint x="90" y="410" as="targetPoint" />
          </mxGeometry>
        </mxCell>
        <mxCell id="e1WzZySRsdqQACFZxS4t-584" value="Extracted Feature&amp;nbsp;" style="text;html=1;strokeColor=none;fillColor=none;align=center;verticalAlign=middle;whiteSpace=wrap;rounded=0;strokeWidth=0.3;" vertex="1" parent="1">
          <mxGeometry x="40" y="438.5" width="40" height="20" as="geometry" />
        </mxCell>
      </root>
    </mxGraphModel>
  </diagram>
</mxfile>
